<?xml version="1.0" encoding="utf-8" standalone="no"?>
<!DOCTYPE svg PUBLIC "-//W3C//DTD SVG 1.1//EN"
  "http://www.w3.org/Graphics/SVG/1.1/DTD/svg11.dtd">
<svg xmlns:xlink="http://www.w3.org/1999/xlink" width="451.18875pt" height="246.394791pt" viewBox="0 0 451.18875 246.394791" xmlns="http://www.w3.org/2000/svg" version="1.1">
 <metadata>
  <rdf:RDF xmlns:dc="http://purl.org/dc/elements/1.1/" xmlns:cc="http://creativecommons.org/ns#" xmlns:rdf="http://www.w3.org/1999/02/22-rdf-syntax-ns#">
   <cc:Work>
    <dc:type rdf:resource="http://purl.org/dc/dcmitype/StillImage"/>
    <dc:date>2026-09-28T21:44:25.537576</dc:date>
    <dc:format>image/svg+xml</dc:format>
    <dc:creator>
     <cc:Agent>
      <dc:title>Matplotlib v3.10.8, https://matplotlib.org/</dc:title>
     </cc:Agent>
    </dc:creator>
   </cc:Work>
  </rdf:RDF>
 </metadata>
 <defs>
  <style type="text/css">*{stroke-linejoin: round; stroke-linecap: butt}</style>
 </defs>
 <g id="figure_1">
  <g id="patch_1">
   <path d="M 0 246.394791 
L 451.18875 246.394791 
L 451.18875 0 
L 0 0 
z
" style="fill: #ffffff"/>
  </g>
  <g id="axes_1">
   <g id="patch_2">
    <path d="M 42.22875 106.992 
L 443.98875 106.992 
L 443.98875 12.848604 
L 42.22875 12.848604 
z
" style="fill: #ffffff"/>
   </g>
   <g id="matplotlib.axis_1">
    <g id="xtick_1">
     <g id="line2d_1">
      <path d="M 60.316563 106.992 
L 60.316563 12.848604 
" clip-path="url(#pe9ed182e08)" style="fill: none; stroke: #e3e6ea; stroke-width: 0.55; stroke-linecap: square"/>
     </g>
     <g id="line2d_2">
      <defs>
       <path id="m055d622fb0" d="M 0 0 
L 0 3.5 
" style="stroke: #000000; stroke-width: 0.8"/>
      </defs>
      <g>
       <use xlink:href="#m055d622fb0" x="60.316563" y="106.992" style="stroke: #000000; stroke-width: 0.8"/>
      </g>
     </g>
    </g>
    <g id="xtick_2">
     <g id="line2d_3">
      <path d="M 147.319032 106.992 
L 147.319032 12.848604 
" clip-path="url(#pe9ed182e08)" style="fill: none; stroke: #e3e6ea; stroke-width: 0.55; stroke-linecap: square"/>
     </g>
     <g id="line2d_4">
      <g>
       <use xlink:href="#m055d622fb0" x="147.319032" y="106.992" style="stroke: #000000; stroke-width: 0.8"/>
      </g>
     </g>
    </g>
    <g id="xtick_3">
     <g id="line2d_5">
      <path d="M 234.321501 106.992 
L 234.321501 12.848604 
" clip-path="url(#pe9ed182e08)" style="fill: none; stroke: #e3e6ea; stroke-width: 0.55; stroke-linecap: square"/>
     </g>
     <g id="line2d_6">
      <g>
       <use xlink:href="#m055d622fb0" x="234.321501" y="106.992" style="stroke: #000000; stroke-width: 0.8"/>
      </g>
     </g>
    </g>
    <g id="xtick_4">
     <g id="line2d_7">
      <path d="M 321.323969 106.992 
L 321.323969 12.848604 
" clip-path="url(#pe9ed182e08)" style="fill: none; stroke: #e3e6ea; stroke-width: 0.55; stroke-linecap: square"/>
     </g>
     <g id="line2d_8">
      <g>
       <use xlink:href="#m055d622fb0" x="321.323969" y="106.992" style="stroke: #000000; stroke-width: 0.8"/>
      </g>
     </g>
    </g>
    <g id="xtick_5">
     <g id="line2d_9">
      <path d="M 408.326438 106.992 
L 408.326438 12.848604 
" clip-path="url(#pe9ed182e08)" style="fill: none; stroke: #e3e6ea; stroke-width: 0.55; stroke-linecap: square"/>
     </g>
     <g id="line2d_10">
      <g>
       <use xlink:href="#m055d622fb0" x="408.326438" y="106.992" style="stroke: #000000; stroke-width: 0.8"/>
      </g>
     </g>
    </g>
   </g>
   <g id="matplotlib.axis_2">
    <g id="ytick_1">
     <g id="line2d_11">
      <path d="M 42.22875 102.993126 
L 443.98875 102.993126 
" clip-path="url(#pe9ed182e08)" style="fill: none; stroke: #e3e6ea; stroke-width: 0.55; stroke-linecap: square"/>
     </g>
     <g id="line2d_12">
      <defs>
       <path id="m2641d4f73c" d="M 0 0 
L -3.5 0 
" style="stroke: #000000; stroke-width: 0.8"/>
      </defs>
      <g>
       <use xlink:href="#m2641d4f73c" x="42.22875" y="102.993126" style="stroke: #000000; stroke-width: 0.8"/>
      </g>
     </g>
     <g id="text_1">
      <text style="font-size: 8px; font-family: 'Arial', 'Helvetica', 'DejaVu Sans', sans-serif; text-anchor: end" x="35.22875" y="105.856251" transform="rotate(-0 35.22875 105.856251)">0.0</text>
     </g>
    </g>
    <g id="ytick_2">
     <g id="line2d_13">
      <path d="M 42.22875 73.633173 
L 443.98875 73.633173 
" clip-path="url(#pe9ed182e08)" style="fill: none; stroke: #e3e6ea; stroke-width: 0.55; stroke-linecap: square"/>
     </g>
     <g id="line2d_14">
      <g>
       <use xlink:href="#m2641d4f73c" x="42.22875" y="73.633173" style="stroke: #000000; stroke-width: 0.8"/>
      </g>
     </g>
     <g id="text_2">
      <text style="font-size: 8px; font-family: 'Arial', 'Helvetica', 'DejaVu Sans', sans-serif; text-anchor: end" x="35.22875" y="76.496298" transform="rotate(-0 35.22875 76.496298)">0.5</text>
     </g>
    </g>
    <g id="ytick_3">
     <g id="line2d_15">
      <path d="M 42.22875 44.27322 
L 443.98875 44.27322 
" clip-path="url(#pe9ed182e08)" style="fill: none; stroke: #e3e6ea; stroke-width: 0.55; stroke-linecap: square"/>
     </g>
     <g id="line2d_16">
      <g>
       <use xlink:href="#m2641d4f73c" x="42.22875" y="44.27322" style="stroke: #000000; stroke-width: 0.8"/>
      </g>
     </g>
     <g id="text_3">
      <text style="font-size: 8px; font-family: 'Arial', 'Helvetica', 'DejaVu Sans', sans-serif; text-anchor: end" x="35.22875" y="47.136345" transform="rotate(-0 35.22875 47.136345)">1.0</text>
     </g>
    </g>
    <g id="ytick_4">
     <g id="line2d_17">
      <path d="M 42.22875 14.913268 
L 443.98875 14.913268 
" clip-path="url(#pe9ed182e08)" style="fill: none; stroke: #e3e6ea; stroke-width: 0.55; stroke-linecap: square"/>
     </g>
     <g id="line2d_18">
      <g>
       <use xlink:href="#m2641d4f73c" x="42.22875" y="14.913268" style="stroke: #000000; stroke-width: 0.8"/>
      </g>
     </g>
     <g id="text_4">
      <text style="font-size: 8px; font-family: 'Arial', 'Helvetica', 'DejaVu Sans', sans-serif; text-anchor: end" x="35.22875" y="17.776393" transform="rotate(-0 35.22875 17.776393)">1.5</text>
     </g>
    </g>
    <g id="text_5">
     <text style="font-size: 9px; font-family: 'Arial', 'Helvetica', 'DejaVu Sans', sans-serif; text-anchor: middle" x="18.214531" y="59.920302" transform="rotate(-90 18.214531 59.920302)">3-D position error (m)</text>
    </g>
   </g>
   <g id="line2d_19">
    <path d="M 60.490568 99.614909 
L 61.534598 95.639488 
L 63.274647 89.03185 
L 64.144672 86.49784 
L 64.840692 85.019305 
L 65.536711 84.046222 
L 66.058726 83.632021 
L 66.580741 83.450824 
L 67.276761 83.461765 
L 68.842805 83.637486 
L 70.40885 83.513402 
L 70.930864 83.849574 
L 72.670914 85.487477 
L 73.192929 85.520447 
L 73.888948 85.2722 
L 74.584968 84.837133 
L 75.106983 84.30256 
L 75.628998 83.489956 
L 76.499022 81.563213 
L 77.369047 79.660233 
L 77.891062 79.062925 
L 78.239072 78.984595 
L 78.587082 79.121406 
L 80.327131 80.256765 
L 81.023151 80.17926 
L 82.7632 79.77963 
L 83.285215 79.2148 
L 83.80723 78.227361 
L 84.851259 75.479759 
L 85.547279 73.88961 
L 86.069294 73.274085 
L 86.417304 73.203279 
L 86.765314 73.368887 
L 87.461333 74.10729 
L 88.331358 75.031159 
L 89.027378 75.473949 
L 90.767427 76.261116 
L 91.115437 76.223143 
L 91.463447 76.004643 
L 91.985462 75.298366 
L 92.681482 73.78756 
L 93.725511 71.422035 
L 94.247526 70.818833 
L 94.595536 70.759537 
L 94.943546 70.967256 
L 95.465561 71.66534 
L 98.945659 77.519007 
L 99.467674 77.819957 
L 99.815684 77.775798 
L 100.163694 77.537079 
L 100.685709 76.887746 
L 101.903743 75.166328 
L 102.251753 74.986195 
L 102.599763 75.052015 
L 102.947773 75.370745 
L 103.469788 76.25057 
L 104.513817 78.729792 
L 106.253867 82.803458 
L 106.949886 84.028132 
L 107.471901 84.499595 
L 107.819911 84.540294 
L 108.167921 84.366117 
L 108.689936 83.785211 
L 110.081975 81.954604 
L 110.429985 81.837642 
L 110.777995 81.952475 
L 111.126005 82.298517 
L 111.64802 83.18926 
L 112.518044 85.253282 
L 114.258094 89.476121 
L 114.954114 90.644171 
L 115.476128 91.031546 
L 115.824138 91.023216 
L 116.346153 90.683156 
L 117.390183 89.479948 
L 117.912198 89.013897 
L 118.260207 88.89423 
L 118.608217 88.975007 
L 118.956227 89.271257 
L 119.478242 90.094482 
L 120.174262 91.706029 
L 122.088316 96.455919 
L 122.784336 97.5243 
L 123.306351 97.944297 
L 123.828365 98.075877 
L 124.35038 97.986999 
L 126.09043 97.39183 
L 126.612444 97.709806 
L 127.308464 98.570768 
L 127.830479 99.180437 
L 128.178489 99.287126 
L 128.526499 99.017378 
L 129.048514 98.014941 
L 130.440553 94.848337 
L 130.962568 94.212364 
L 131.484583 93.918985 
L 132.180602 93.828301 
L 133.572642 93.704728 
L 134.442667 93.430712 
L 134.964681 92.990404 
L 135.486696 92.177903 
L 136.182716 90.498553 
L 138.270775 84.698882 
L 138.79279 84.081098 
L 139.314805 83.884999 
L 140.010825 83.961417 
L 141.054854 84.062427 
L 141.924879 83.884307 
L 142.620899 83.55682 
L 143.142913 83.02332 
L 143.664928 82.113909 
L 144.360948 80.335205 
L 146.275002 74.877648 
L 146.797017 74.204535 
L 147.319032 73.982413 
L 148.015052 74.08467 
L 149.059081 74.283724 
L 149.929106 74.180317 
L 150.625126 73.951453 
L 151.147141 73.558682 
L 151.669155 72.856128 
L 152.365175 71.421651 
L 154.279229 66.771427 
L 154.801244 66.284261 
L 155.149254 66.230312 
L 155.671269 66.415966 
L 156.889304 66.977751 
L 157.585323 66.982535 
L 158.977363 66.699818 
L 159.499378 66.371265 
L 160.021392 65.766538 
L 160.717412 64.52845 
L 162.109452 61.772336 
L 162.631466 61.325409 
L 162.979476 61.289762 
L 163.501491 61.510331 
L 164.545521 62.087119 
L 165.067536 62.157344 
L 165.93756 61.976457 
L 167.851615 61.40212 
L 168.547634 60.687072 
L 170.287684 58.522353 
L 170.635694 58.419303 
L 171.157708 58.54723 
L 172.549748 59.236456 
L 173.071763 59.210561 
L 176.725866 58.068317 
L 178.117906 57.1556 
L 178.639921 57.138074 
L 179.33594 57.439153 
L 180.03196 57.740551 
L 180.553975 57.763865 
L 181.07599 57.580472 
L 182.642034 56.775648 
L 183.512059 56.757315 
L 184.730093 56.767934 
L 186.122133 56.712001 
L 186.992158 57.019568 
L 187.688177 57.215868 
L 188.210192 57.156873 
L 188.906212 56.776832 
L 190.124247 55.969719 
L 190.820266 55.841105 
L 192.212306 56.025426 
L 194.82238 56.323544 
L 195.5184 56.391539 
L 196.040414 56.239681 
L 196.736434 55.77437 
L 197.780464 55.037075 
L 198.476484 54.842188 
L 199.520513 54.922132 
L 200.390538 54.889743 
L 202.652602 54.52623 
L 203.522627 54.394281 
L 204.218646 54.044188 
L 205.784691 53.138117 
L 206.480711 53.057755 
L 208.046755 53.029823 
L 209.090785 52.646562 
L 210.482824 52.200338 
L 211.352849 51.832517 
L 212.222874 51.15561 
L 213.440908 50.210892 
L 214.136928 49.960442 
L 215.354962 49.650409 
L 216.050982 49.224449 
L 219.357076 46.46915 
L 221.61914 44.063883 
L 223.35919 42.825528 
L 224.229214 41.787381 
L 227.361303 37.399127 
L 228.927348 34.811854 
L 229.797372 33.825615 
L 230.841402 32.691163 
L 231.711427 31.377223 
L 235.01752 25.92199 
L 236.06155 24.56719 
L 236.583565 24.187114 
L 237.10558 24.111477 
L 237.627594 24.33649 
L 239.541649 25.557493 
L 241.107693 26.003064 
L 242.325728 26.602179 
L 242.847743 26.518331 
L 243.369757 26.113244 
L 244.935802 24.500279 
L 245.283812 24.499714 
L 245.631822 24.70778 
L 246.327841 25.547837 
L 247.023861 26.314663 
L 247.371871 26.459777 
L 247.719881 26.409452 
L 248.241896 26.02493 
L 249.633935 24.692076 
L 250.329955 24.486864 
L 251.373985 24.265615 
L 252.070004 23.824683 
L 253.288039 22.953688 
L 253.636049 22.925814 
L 253.984059 23.06848 
L 254.506073 23.56552 
L 255.550103 24.658446 
L 255.898113 24.747048 
L 256.246123 24.633922 
L 256.768138 24.138724 
L 258.508187 21.999585 
L 260.074231 20.667991 
L 261.988286 18.472568 
L 262.336296 18.409128 
L 262.684305 18.515926 
L 263.20632 18.914903 
L 264.25035 19.758403 
L 264.772365 19.884551 
L 265.468384 19.77516 
L 266.164404 19.683777 
L 266.686419 19.817855 
L 267.904454 20.328361 
L 268.252463 20.241878 
L 268.774478 19.78205 
L 269.470498 18.701098 
L 270.340523 17.405796 
L 270.688533 17.164725 
L 271.036542 17.146977 
L 271.384552 17.33554 
L 272.950597 18.680502 
L 273.472612 18.64089 
L 274.168631 18.222725 
L 274.864651 17.828878 
L 275.386666 17.796028 
L 275.908681 18.0033 
L 276.95271 18.490359 
L 277.474725 18.449309 
L 278.170745 18.080234 
L 278.866765 17.722864 
L 279.214775 17.717176 
L 279.562784 17.882998 
L 280.084799 18.432031 
L 281.302834 19.922664 
L 281.824849 20.13207 
L 282.346863 20.060512 
L 283.216888 19.816139 
L 283.738903 19.928329 
L 284.260918 20.333361 
L 286.000967 22.111402 
L 286.696987 22.328676 
L 287.393007 22.544043 
L 287.915021 23.016055 
L 288.611041 24.143625 
L 289.481066 25.542458 
L 289.829076 25.817793 
L 290.177086 25.881831 
L 290.525095 25.760329 
L 291.221115 25.192907 
L 291.917135 24.698294 
L 292.43915 24.641527 
L 292.961165 24.896689 
L 293.831189 25.715745 
L 296.267258 28.263524 
L 298.007308 30.989696 
L 298.529323 31.186073 
L 299.051337 31.079783 
L 300.095367 30.724442 
L 300.617382 30.86441 
L 301.139397 31.322205 
L 302.009421 32.537088 
L 304.7935 36.91773 
L 305.83753 39.012852 
L 306.359545 39.694305 
L 306.88156 40.067231 
L 307.751584 40.318101 
L 308.273599 40.533377 
L 308.795614 40.966927 
L 309.491634 41.871358 
L 310.883673 43.763036 
L 312.449718 45.595866 
L 314.189767 48.230113 
L 314.711782 48.554467 
L 315.407801 48.659725 
L 316.277826 48.793186 
L 316.799841 49.100444 
L 317.843871 50.102618 
L 318.713895 50.801067 
L 320.801955 52.102384 
L 321.845984 53.072927 
L 322.367999 53.287431 
L 322.890014 53.263546 
L 324.630063 52.831012 
L 325.500088 53.070725 
L 326.370113 53.272944 
L 327.066132 53.203857 
L 328.284167 52.992254 
L 330.024216 52.994867 
L 330.546231 52.682307 
L 332.63429 51.062419 
L 334.72235 50.287957 
L 336.288394 49.315121 
L 337.680433 48.680605 
L 338.376453 48.014911 
L 340.116503 46.156314 
L 340.812522 45.818965 
L 342.030557 45.316566 
L 343.074587 44.510606 
L 343.944611 43.898811 
L 344.988641 43.494637 
L 345.684661 43.142075 
L 346.554685 42.383697 
L 347.598715 41.444516 
L 348.294735 41.141017 
L 350.556799 40.688531 
L 351.774833 40.212457 
L 353.340878 39.825508 
L 354.036898 39.31721 
L 355.254932 38.305637 
L 355.776947 38.126373 
L 356.298962 38.164082 
L 358.213016 38.602344 
L 359.605056 38.650404 
L 361.345105 39.06084 
L 362.041125 38.87889 
L 363.085154 38.558111 
L 363.607169 38.660939 
L 364.129184 39.012869 
L 366.565253 41.100511 
L 367.609283 41.889792 
L 368.653312 42.713233 
L 369.175327 42.902519 
L 369.697342 42.880478 
L 371.089381 42.538939 
L 371.611396 42.770481 
L 372.133411 43.319396 
L 373.003436 44.655808 
L 374.91749 47.603646 
L 376.135525 49.283155 
L 376.657539 49.729906 
L 377.179554 49.90523 
L 377.701569 49.837176 
L 378.745599 49.527174 
L 379.093609 49.592629 
L 379.441618 49.820334 
L 379.963633 50.489107 
L 380.659653 51.848058 
L 383.269727 57.412341 
L 383.965747 58.323573 
L 384.487762 58.666718 
L 385.009776 58.731736 
L 385.705796 58.526835 
L 386.401816 58.355858 
L 386.749826 58.443682 
L 387.097836 58.711327 
L 387.619851 59.471605 
L 388.31587 61.022556 
L 390.925944 67.459334 
L 391.621964 68.431915 
L 392.143979 68.78107 
L 392.665994 68.833211 
L 393.362013 68.607488 
L 394.058033 68.393048 
L 394.406043 68.451591 
L 394.754053 68.69034 
L 395.276068 69.431298 
L 395.972088 71.015593 
L 398.408157 77.260525 
L 398.930171 78.060939 
L 399.452186 78.462911 
L 399.800196 78.492779 
L 400.322211 78.220923 
L 401.018231 77.450708 
L 401.888255 76.410016 
L 402.236265 76.204179 
L 402.584275 76.214682 
L 402.932285 76.46559 
L 403.4543 77.253448 
L 404.324325 79.248838 
L 405.542359 82.029898 
L 406.238379 83.148243 
L 406.760394 83.662838 
L 407.108404 83.793101 
L 407.456413 83.721271 
L 407.804423 83.444233 
L 408.326438 82.691466 
L 409.196463 80.894027 
L 410.066487 79.25365 
L 410.414497 78.907519 
L 410.762507 78.818953 
L 411.110517 78.986886 
L 411.632532 79.620418 
L 413.372581 82.190594 
L 414.068601 82.648209 
L 414.764621 82.827139 
L 415.286636 82.683253 
L 415.80865 82.186272 
L 416.330665 81.312267 
L 417.20069 79.280049 
L 418.070715 77.389894 
L 418.592729 76.836462 
L 418.940739 76.790537 
L 419.288749 76.966088 
L 420.158774 77.841512 
L 420.854794 78.347794 
L 421.376808 78.428644 
L 422.420838 78.207376 
L 423.290863 77.905784 
L 423.812878 77.424153 
L 424.334892 76.560352 
L 425.030912 74.87016 
L 425.726932 72.961535 
L 425.726932 72.961535 
" clip-path="url(#pe9ed182e08)" style="fill: none; stroke: #cc9429; stroke-width: 1.1; stroke-linecap: square"/>
   </g>
   <g id="line2d_20">
    <path d="M 60.490568 99.614909 
L 61.534598 95.639488 
L 63.274647 89.122861 
L 64.144672 86.68338 
L 65.014697 84.886 
L 65.710716 83.863676 
L 66.406736 83.190637 
L 67.102756 82.834183 
L 67.798776 82.746056 
L 68.6688 82.917518 
L 69.71283 83.370217 
L 70.930864 84.123679 
L 71.974894 85.039108 
L 73.018924 86.246419 
L 75.454993 89.566309 
L 77.021037 91.430178 
L 78.935092 93.311319 
L 79.805116 93.846218 
L 80.675141 94.075765 
L 81.893175 94.348927 
L 82.7632 94.828168 
L 85.721284 96.887196 
L 86.591309 97.051655 
L 89.201383 97.229158 
L 90.419417 97.728913 
L 92.507477 98.598284 
L 93.899516 98.909875 
L 95.987575 99.127082 
L 101.555733 99.580476 
L 103.121778 99.909675 
L 105.383842 100.563577 
L 106.253867 100.456271 
L 107.471901 100.231109 
L 107.993916 100.344226 
L 108.515931 100.666805 
L 109.211951 101.376644 
L 109.90797 102.114294 
L 110.25598 102.223354 
L 110.952 101.92591 
L 111.474015 101.840253 
L 111.99603 102.012086 
L 112.692049 102.294851 
L 113.040059 102.118897 
L 114.780109 100.509033 
L 115.128119 100.527647 
L 115.650133 100.831753 
L 116.694163 101.775434 
L 117.042173 101.656402 
L 117.564188 100.927965 
L 118.434212 99.632781 
L 118.956227 99.230576 
L 119.478242 99.170491 
L 120.174262 99.439793 
L 120.870281 99.691664 
L 121.392296 99.659148 
L 122.958341 99.341674 
L 123.480356 99.218955 
L 123.828365 98.976399 
L 124.35038 98.262548 
L 125.0464 96.765359 
L 126.264435 94.041364 
L 126.786449 93.400407 
L 127.308464 93.18695 
L 127.830479 93.270838 
L 129.048514 93.586867 
L 129.918538 93.465557 
L 131.310578 93.103045 
L 131.832593 92.754484 
L 132.528612 91.946227 
L 134.268662 89.501299 
L 134.790676 89.242628 
L 135.312691 89.303953 
L 136.182716 89.782556 
L 137.226746 90.289894 
L 139.1408 90.965893 
L 140.358834 91.826085 
L 142.446894 93.627209 
L 144.708958 95.570906 
L 145.752988 96.174488 
L 146.797017 96.531716 
L 148.537067 96.808792 
L 149.929106 97.108067 
L 151.321146 97.651258 
L 154.801244 99.152633 
L 156.889304 99.99504 
L 158.629353 100.697815 
L 159.673383 100.819996 
L 160.891417 100.910629 
L 161.761442 101.258913 
L 162.457462 101.489788 
L 163.153481 101.418202 
L 163.849501 101.335524 
L 165.067536 101.427826 
L 165.415545 101.106505 
L 166.111565 99.97065 
L 166.98159 98.550223 
L 167.503605 98.066414 
L 168.02562 97.888317 
L 169.417659 97.718125 
L 170.113679 97.201384 
L 170.983703 96.488068 
L 171.679723 96.241698 
L 172.723753 96.011064 
L 173.419773 95.5464 
L 175.681837 93.596094 
L 176.551861 92.925393 
L 177.421886 91.906518 
L 178.813926 90.147741 
L 179.509945 89.727884 
L 181.07599 89.140245 
L 181.946014 88.401718 
L 182.990044 87.547796 
L 183.860069 87.199107 
L 185.948128 86.779662 
L 186.818153 86.770436 
L 189.080217 87.050388 
L 190.646261 86.901327 
L 191.342281 87.082636 
L 192.212306 87.583533 
L 193.43034 88.63029 
L 195.17039 90.103762 
L 196.214419 90.664489 
L 197.258449 90.944684 
L 200.564543 91.551339 
L 202.130587 92.26765 
L 205.784691 94.273631 
L 208.91678 96.003268 
L 212.918893 97.9111 
L 214.484938 98.847344 
L 215.528967 99.188471 
L 218.487051 99.780772 
L 220.053096 100.545974 
L 220.749116 100.598259 
L 221.445135 100.438925 
L 222.31516 99.981539 
L 223.35919 99.415201 
L 224.055209 99.304032 
L 224.751229 99.209244 
L 225.273244 98.88617 
L 225.969264 98.034215 
L 229.275357 92.987007 
L 230.493392 90.772187 
L 232.755456 87.320134 
L 235.01752 82.519387 
L 236.06155 81.111218 
L 237.279585 79.744836 
L 237.801599 79.404576 
L 238.323614 79.337665 
L 238.845629 79.536388 
L 240.759683 80.606723 
L 241.803713 81.002925 
L 242.499733 81.554014 
L 243.543762 82.783965 
L 244.761797 84.149878 
L 245.979831 85.137974 
L 247.371871 86.24114 
L 248.415901 87.415545 
L 251.547989 91.278615 
L 253.984059 93.782949 
L 257.638162 97.436042 
L 258.856197 98.152898 
L 261.640276 99.433347 
L 263.20632 99.937988 
L 264.424355 100.059366 
L 265.642389 100.205432 
L 267.034429 100.506753 
L 269.296493 100.435817 
L 269.818508 99.837521 
L 271.210547 97.751851 
L 271.558557 97.550066 
L 271.906567 97.540218 
L 272.428582 97.822061 
L 273.472612 98.629504 
L 273.820621 98.693198 
L 274.342636 98.525424 
L 275.212661 98.171293 
L 275.734676 98.23898 
L 276.778705 98.568668 
L 277.126715 98.471077 
L 277.64873 98.032161 
L 278.866765 96.745224 
L 279.388779 96.57451 
L 280.606814 96.516908 
L 280.954824 96.264529 
L 281.476839 95.55603 
L 283.042883 92.901581 
L 283.564898 92.591107 
L 284.086913 92.610085 
L 285.304947 92.883742 
L 286.000967 92.721228 
L 287.219002 92.341547 
L 288.263031 92.079161 
L 288.785046 91.697577 
L 289.481066 90.854751 
L 290.873105 89.058869 
L 291.39512 88.792385 
L 291.917135 88.776014 
L 293.309174 88.8954 
L 294.179199 88.620576 
L 295.049224 88.416664 
L 295.745244 88.545444 
L 296.615268 89.018695 
L 298.181313 90.22606 
L 300.269372 91.915888 
L 300.965392 92.159249 
L 301.835416 92.168145 
L 303.575466 92.020083 
L 304.44549 92.204814 
L 305.663525 92.74029 
L 308.273599 93.970644 
L 310.361658 94.65564 
L 313.493747 95.598305 
L 315.581806 96.504604 
L 318.365885 97.770393 
L 323.586034 99.725243 
L 324.978073 100.172419 
L 328.632177 101.107366 
L 329.676206 101.278751 
L 330.546231 101.205785 
L 331.764266 100.825474 
L 332.460285 100.713717 
L 333.852325 100.742676 
L 334.37434 100.341622 
L 336.462399 98.103869 
L 337.332424 97.366028 
L 338.028443 96.464336 
L 339.942498 93.696011 
L 341.160532 92.095454 
L 342.552572 89.72986 
L 343.770606 87.920313 
L 345.162646 85.875539 
L 346.72869 83.472601 
L 347.42471 82.781787 
L 348.46874 82.120799 
L 351.078814 80.730456 
L 353.688888 80.134903 
L 354.558912 80.142115 
L 355.254932 80.359842 
L 356.124957 80.86535 
L 357.516996 81.988729 
L 359.779061 83.785566 
L 362.911149 86.030002 
L 364.303189 87.546259 
L 366.739258 90.270457 
L 367.957293 91.284566 
L 369.175327 92.009049 
L 370.567367 92.584122 
L 372.481421 93.1078 
L 375.091495 93.799948 
L 376.483535 94.434958 
L 378.223584 95.489233 
L 383.269727 98.717456 
L 384.835772 99.459006 
L 387.271841 100.564269 
L 388.31587 100.958518 
L 389.533905 101.136924 
L 390.229925 101.00582 
L 391.273954 100.71327 
L 391.621964 100.816909 
L 392.143979 101.273093 
L 392.839999 102.16744 
L 393.014004 102.206142 
L 393.362013 101.740871 
L 395.102063 98.085039 
L 395.624078 97.65968 
L 396.146092 97.573814 
L 397.016117 97.547473 
L 397.538132 97.202263 
L 398.234152 96.330341 
L 399.104176 95.301848 
L 399.800196 94.911359 
L 400.670221 94.505531 
L 401.192236 93.997027 
L 402.06226 92.720461 
L 402.75828 91.790602 
L 403.4543 91.229423 
L 404.324325 90.618221 
L 404.846339 89.94222 
L 405.542359 88.531862 
L 406.934399 85.456029 
L 407.456413 84.888988 
L 407.978428 84.698254 
L 409.196463 84.516762 
L 409.718478 84.154819 
L 411.284522 82.812281 
L 412.154547 82.209304 
L 412.676562 81.519315 
L 413.198576 80.454707 
L 415.112631 75.867789 
L 415.460641 75.522851 
L 415.80865 75.396521 
L 416.330665 75.484688 
L 417.20069 75.725038 
L 417.722705 75.631131 
L 420.854794 74.153476 
L 421.376808 73.385112 
L 423.290863 69.933389 
L 423.638873 69.771749 
L 423.986882 69.827093 
L 424.508897 70.196312 
L 425.378922 70.887221 
L 425.726932 71.017957 
L 425.726932 71.017957 
" clip-path="url(#pe9ed182e08)" style="fill: none; stroke: #b6242e; stroke-width: 1.1; stroke-linecap: square"/>
   </g>
   <g id="line2d_21">
    <path d="M 60.490568 99.614909 
L 61.534598 95.639488 
L 63.274647 89.122861 
L 64.144672 86.68338 
L 65.014697 84.886 
L 65.710716 83.863676 
L 66.406736 83.190965 
L 67.102756 82.841093 
L 67.798776 82.781432 
L 68.494795 82.96783 
L 69.36482 83.468945 
L 70.40885 84.357007 
L 71.452879 85.513155 
L 73.366934 88.078858 
L 75.454993 90.745991 
L 76.499022 91.734357 
L 77.195042 92.169834 
L 77.891062 92.345907 
L 78.935092 92.263808 
L 79.631111 92.316006 
L 80.153126 92.558537 
L 80.849146 93.121588 
L 82.7632 94.830101 
L 83.45922 95.160802 
L 84.15524 95.231657 
L 84.851259 95.033466 
L 85.895289 94.684524 
L 86.417304 94.743533 
L 86.939319 95.032741 
L 87.635338 95.693163 
L 89.027378 97.093509 
L 89.723398 97.45319 
L 90.245412 97.495112 
L 90.767427 97.320429 
L 91.463447 96.806139 
L 92.507477 95.946192 
L 93.029491 95.761222 
L 93.551506 95.827967 
L 94.073521 96.135522 
L 94.943546 96.973742 
L 95.987575 97.930445 
L 96.683595 98.237089 
L 97.20561 98.232657 
L 97.90163 97.942945 
L 99.467674 97.079732 
L 99.989689 97.094153 
L 100.511704 97.322059 
L 101.207724 97.880697 
L 102.773768 99.264161 
L 103.469788 99.484786 
L 103.991803 99.436591 
L 104.687822 99.135076 
L 106.079862 98.434576 
L 106.601877 98.406531 
L 107.123891 98.559045 
L 107.819911 99.003109 
L 109.385956 100.171231 
L 110.081975 100.349013 
L 110.777995 100.252527 
L 111.99603 99.720101 
L 112.866054 99.492109 
L 113.562074 99.598843 
L 114.258094 99.984418 
L 116.172148 101.345028 
L 116.868168 101.459177 
L 117.564188 101.340952 
L 119.478242 100.774948 
L 120.000257 100.87021 
L 120.696277 101.253949 
L 122.610331 102.698738 
L 123.65436 102.695979 
L 124.176375 102.587135 
L 124.872395 102.146066 
L 125.74242 101.579696 
L 126.264435 101.443547 
L 126.786449 101.51826 
L 127.482469 101.90142 
L 128.352494 102.413634 
L 128.700504 102.367789 
L 129.744533 102.02848 
L 130.440553 102.103081 
L 131.136573 102.16193 
L 131.658588 101.956454 
L 132.702617 101.439422 
L 133.224632 101.414113 
L 133.920652 101.632836 
L 134.616672 101.804965 
L 135.138686 101.65972 
L 136.182716 101.200479 
L 136.704731 101.191075 
L 138.44478 101.534633 
L 140.010825 101.175631 
L 141.228859 101.145135 
L 141.924879 100.790031 
L 142.794904 100.349315 
L 143.316918 100.304708 
L 144.012938 100.526745 
L 145.056968 100.897732 
L 145.752988 100.842926 
L 146.971022 100.729388 
L 147.841047 100.627573 
L 148.537067 100.291699 
L 149.581096 99.784457 
L 150.103111 99.771607 
L 150.799131 100.017928 
L 151.84316 100.457585 
L 152.713185 100.499321 
L 154.453234 100.317841 
L 155.323259 99.881072 
L 156.193284 99.489454 
L 156.715299 99.487977 
L 157.411318 99.775896 
L 158.455348 100.32371 
L 159.151368 100.376564 
L 161.935447 100.052523 
L 163.153481 99.62161 
L 163.675496 99.664283 
L 164.545521 100.015546 
L 165.241541 100.250189 
L 165.93756 100.239765 
L 167.155595 100.164747 
L 168.895644 100.245133 
L 170.113679 100.17698 
L 171.157708 100.481806 
L 171.853728 100.60964 
L 172.549748 100.490642 
L 173.593778 100.298798 
L 174.463802 100.413088 
L 175.507832 100.554716 
L 177.421886 100.613125 
L 178.291911 100.726182 
L 178.987931 100.549451 
L 180.205965 100.074855 
L 180.901985 100.067259 
L 182.120019 100.390314 
L 183.512059 100.63698 
L 184.556089 100.667295 
L 185.252108 100.415479 
L 187.166163 99.344929 
L 187.862182 99.33792 
L 188.906212 99.64189 
L 190.124247 99.948334 
L 190.820266 99.934938 
L 191.516286 99.702017 
L 192.560316 99.033474 
L 193.43034 98.564936 
L 194.12636 98.46394 
L 194.82238 98.589829 
L 197.084444 99.243942 
L 197.780464 99.175125 
L 198.650488 98.828585 
L 200.042528 98.221006 
L 200.738548 98.189596 
L 201.608572 98.424537 
L 203.348622 98.985139 
L 204.044642 98.989909 
L 204.914666 98.734093 
L 206.654716 98.016339 
L 207.350735 98.059017 
L 208.22076 98.376454 
L 209.6128 98.930041 
L 210.482824 99.007328 
L 211.352849 98.838028 
L 213.614913 98.099569 
L 214.310933 98.22412 
L 216.224987 98.74277 
L 217.095012 98.702115 
L 218.139041 98.442302 
L 220.401106 97.709407 
L 221.61914 97.740085 
L 222.837175 97.705288 
L 224.403219 97.379559 
L 225.969264 96.864531 
L 227.361303 96.461615 
L 229.449362 95.958614 
L 232.407446 94.708083 
L 233.973491 93.997915 
L 234.669511 93.819283 
L 235.191525 93.934274 
L 235.71354 94.250997 
L 236.40956 94.934607 
L 238.497619 97.203516 
L 239.367644 97.72938 
L 240.585678 98.374724 
L 241.629708 98.990201 
L 242.151723 99.019305 
L 242.847743 98.71939 
L 243.717767 98.350145 
L 244.413787 98.365174 
L 245.457817 98.729544 
L 247.893886 99.515981 
L 248.415901 99.528735 
L 248.937915 99.310019 
L 249.981945 98.735639 
L 250.50396 98.736404 
L 251.025975 99.006698 
L 252.418014 100.057526 
L 252.940029 100.065385 
L 254.158064 99.843111 
L 254.854083 100.065718 
L 255.724108 100.355647 
L 256.246123 100.297203 
L 257.290152 100.069126 
L 257.986172 100.221953 
L 259.030202 100.54876 
L 259.552217 100.471053 
L 260.770251 100.185398 
L 261.292266 100.325726 
L 262.510301 100.84261 
L 263.032315 100.784469 
L 264.076345 100.562589 
L 264.772365 100.740492 
L 265.642389 101.024794 
L 266.164404 100.911378 
L 267.382439 100.35513 
L 267.904454 100.410872 
L 268.600473 100.772444 
L 269.296493 101.106712 
L 269.818508 101.080747 
L 271.036542 100.795228 
L 271.732562 100.937679 
L 272.602587 101.122633 
L 273.298607 100.964416 
L 274.168631 100.761852 
L 274.690646 100.854992 
L 275.908681 101.263522 
L 276.430696 101.125262 
L 277.64873 100.587821 
L 278.34475 100.638592 
L 279.736789 100.926221 
L 281.476839 100.839867 
L 282.520868 101.016945 
L 283.042883 100.885644 
L 284.434923 100.314404 
L 285.130942 100.38498 
L 286.870992 100.874001 
L 288.437036 100.914796 
L 289.481066 101.038477 
L 290.177086 100.821027 
L 291.39512 100.332974 
L 292.09114 100.310471 
L 296.093253 100.671468 
L 296.789273 100.291859 
L 297.833303 99.677734 
L 298.529323 99.559587 
L 299.225342 99.713545 
L 301.661411 100.542493 
L 302.357431 100.513615 
L 303.053451 100.209963 
L 304.967505 99.074526 
L 305.48952 99.073506 
L 306.18554 99.301473 
L 307.925589 99.989067 
L 308.795614 100.073359 
L 309.491634 99.94703 
L 310.187653 99.602413 
L 311.579693 98.789125 
L 312.275713 98.68444 
L 313.145737 98.863863 
L 314.537777 99.198604 
L 315.581806 99.199929 
L 316.451831 98.964245 
L 318.713895 97.994392 
L 319.409915 98.070989 
L 321.671979 98.540888 
L 322.716009 98.464431 
L 323.586034 98.192652 
L 324.978073 97.693374 
L 325.848098 97.669629 
L 328.980187 97.981941 
L 330.198221 97.838989 
L 331.764266 97.579394 
L 332.808295 97.694866 
L 334.72235 98.026775 
L 336.114389 98.042406 
L 337.506429 97.795801 
L 338.376453 97.737462 
L 339.420483 97.926312 
L 341.160532 98.246677 
L 342.900582 98.314758 
L 344.988641 98.173662 
L 346.38068 98.534329 
L 347.598715 98.766477 
L 348.816749 98.793509 
L 349.860779 98.564024 
L 350.904809 98.355844 
L 351.600828 98.435666 
L 354.732917 99.214229 
L 355.776947 99.15274 
L 357.516996 98.890688 
L 358.213016 99.085307 
L 360.47508 99.969 
L 361.51911 100.008224 
L 362.21513 99.846446 
L 364.303189 99.121847 
L 364.999209 99.289214 
L 367.609283 100.328779 
L 368.305302 100.267828 
L 369.175327 99.91436 
L 370.393362 99.370535 
L 370.915377 99.344162 
L 371.611396 99.5623 
L 372.829431 100.318435 
L 373.699456 100.747263 
L 374.395475 100.848127 
L 375.091495 100.706868 
L 376.135525 100.201521 
L 377.005549 99.87719 
L 377.527564 99.889865 
L 378.049579 100.087167 
L 378.919604 100.720378 
L 380.137638 101.618112 
L 380.833658 101.820736 
L 381.529678 101.726283 
L 382.225697 101.382807 
L 383.617737 100.593521 
L 384.139752 100.547681 
L 384.661767 100.707126 
L 385.357786 101.181303 
L 386.575821 102.066243 
L 387.097836 102.196251 
L 387.793855 102.144641 
L 388.489875 101.918998 
L 389.3599 101.362276 
L 390.229925 100.858337 
L 390.751939 100.805181 
L 391.273954 100.997247 
L 392.839999 101.947573 
L 393.362013 101.710387 
L 394.232038 101.279793 
L 394.928058 101.265609 
L 395.798083 101.298015 
L 396.320097 101.06143 
L 397.538132 100.3149 
L 398.060147 100.30054 
L 398.756167 100.590361 
L 399.626191 100.958805 
L 400.148206 100.931515 
L 401.366241 100.717919 
L 402.75828 100.69527 
L 403.628305 100.224805 
L 404.324325 99.931431 
L 404.846339 99.959342 
L 405.542359 100.311668 
L 406.238379 100.667675 
L 406.760394 100.670131 
L 408.326438 100.253684 
L 409.892483 100.383535 
L 411.632532 99.730891 
L 412.154547 99.928657 
L 413.372581 100.572166 
L 413.894596 100.514489 
L 414.938626 100.243399 
L 415.634645 100.347953 
L 416.50467 100.516796 
L 417.026685 100.354231 
L 418.24472 99.716297 
L 418.766734 99.767913 
L 419.288749 100.077761 
L 420.158774 100.608756 
L 420.506784 100.585884 
L 421.028799 100.281204 
L 421.898823 99.751176 
L 422.420838 99.713966 
L 423.986882 100.01843 
L 424.682902 99.649576 
L 425.378922 99.308869 
L 425.726932 99.287847 
L 425.726932 99.287847 
" clip-path="url(#pe9ed182e08)" style="fill: none; stroke: #6e141c; stroke-width: 1.1; stroke-linecap: square"/>
   </g>
   <g id="patch_3">
    <path d="M 42.22875 106.992 
L 42.22875 12.848604 
" style="fill: none; stroke: #000000; stroke-width: 0.8; stroke-linejoin: miter; stroke-linecap: square"/>
   </g>
   <g id="patch_4">
    <path d="M 42.22875 106.992 
L 443.98875 106.992 
" style="fill: none; stroke: #000000; stroke-width: 0.8; stroke-linejoin: miter; stroke-linecap: square"/>
   </g>
   <g id="text_6">
    <text style="font-weight: 700; font-size: 11px; font-family: 'Arial', 'Helvetica', 'DejaVu Sans', sans-serif; text-anchor: end" x="18.12315" y="15.073594" transform="rotate(-0 18.12315 15.073594)">a</text>
   </g>
   <g id="legend_1">
    <g id="line2d_22">
     <path d="M 48.52875 21.794385 
L 55.52875 21.794385 
L 62.52875 21.794385 
" style="fill: none; stroke: #cc9429; stroke-width: 1.1; stroke-linecap: square"/>
    </g>
    <g id="text_7">
     <text style="font-size: 7px; font-family: 'Arial', 'Helvetica', 'DejaVu Sans', sans-serif; text-anchor: start" x="68.12875" y="24.244385" transform="rotate(-0 68.12875 24.244385)">MPC (0.89 m)</text>
    </g>
    <g id="line2d_23">
     <path d="M 48.52875 31.863448 
L 55.52875 31.863448 
L 62.52875 31.863448 
" style="fill: none; stroke: #b6242e; stroke-width: 1.1; stroke-linecap: square"/>
    </g>
    <g id="text_8">
     <text style="font-size: 7px; font-family: 'Arial', 'Helvetica', 'DejaVu Sans', sans-serif; text-anchor: start" x="68.12875" y="34.313448" transform="rotate(-0 68.12875 34.313448)">PAC-S (0.21 m)</text>
    </g>
    <g id="line2d_24">
     <path d="M 48.52875 41.93251 
L 55.52875 41.93251 
L 62.52875 41.93251 
" style="fill: none; stroke: #6e141c; stroke-width: 1.1; stroke-linecap: square"/>
    </g>
    <g id="text_9">
     <text style="font-size: 7px; font-family: 'Arial', 'Helvetica', 'DejaVu Sans', sans-serif; text-anchor: start" x="68.12875" y="44.38251" transform="rotate(-0 68.12875 44.38251)">PAC-RL (0.09 m)</text>
    </g>
   </g>
  </g>
  <g id="axes_2">
   <g id="patch_5">
    <path d="M 42.22875 212.432604 
L 443.98875 212.432604 
L 443.98875 118.289208 
L 42.22875 118.289208 
z
" style="fill: #ffffff"/>
   </g>
   <g id="patch_6">
    <path d="M 42.22875 174.949585 
L 443.98875 174.949585 
L 443.98875 157.515623 
L 42.22875 157.515623 
z
" clip-path="url(#p5770048191)" style="fill: #efedf5; stroke: #efedf5; stroke-linejoin: miter"/>
   </g>
   <g id="matplotlib.axis_3">
    <g id="xtick_6">
     <g id="line2d_25">
      <path d="M 60.316563 212.432604 
L 60.316563 118.289208 
" clip-path="url(#p5770048191)" style="fill: none; stroke: #e3e6ea; stroke-width: 0.55; stroke-linecap: square"/>
     </g>
     <g id="line2d_26">
      <g>
       <use xlink:href="#m055d622fb0" x="60.316563" y="212.432604" style="stroke: #000000; stroke-width: 0.8"/>
      </g>
     </g>
     <g id="text_10">
      <text style="font-size: 8px; font-family: 'Arial', 'Helvetica', 'DejaVu Sans', sans-serif; text-anchor: middle" x="60.316563" y="225.158854" transform="rotate(-0 60.316563 225.158854)">0</text>
     </g>
    </g>
    <g id="xtick_7">
     <g id="line2d_27">
      <path d="M 147.319032 212.432604 
L 147.319032 118.289208 
" clip-path="url(#p5770048191)" style="fill: none; stroke: #e3e6ea; stroke-width: 0.55; stroke-linecap: square"/>
     </g>
     <g id="line2d_28">
      <g>
       <use xlink:href="#m055d622fb0" x="147.319032" y="212.432604" style="stroke: #000000; stroke-width: 0.8"/>
      </g>
     </g>
     <g id="text_11">
      <text style="font-size: 8px; font-family: 'Arial', 'Helvetica', 'DejaVu Sans', sans-serif; text-anchor: middle" x="147.319032" y="225.158854" transform="rotate(-0 147.319032 225.158854)">5</text>
     </g>
    </g>
    <g id="xtick_8">
     <g id="line2d_29">
      <path d="M 234.321501 212.432604 
L 234.321501 118.289208 
" clip-path="url(#p5770048191)" style="fill: none; stroke: #e3e6ea; stroke-width: 0.55; stroke-linecap: square"/>
     </g>
     <g id="line2d_30">
      <g>
       <use xlink:href="#m055d622fb0" x="234.321501" y="212.432604" style="stroke: #000000; stroke-width: 0.8"/>
      </g>
     </g>
     <g id="text_12">
      <text style="font-size: 8px; font-family: 'Arial', 'Helvetica', 'DejaVu Sans', sans-serif; text-anchor: middle" x="234.321501" y="225.158854" transform="rotate(-0 234.321501 225.158854)">10</text>
     </g>
    </g>
    <g id="xtick_9">
     <g id="line2d_31">
      <path d="M 321.323969 212.432604 
L 321.323969 118.289208 
" clip-path="url(#p5770048191)" style="fill: none; stroke: #e3e6ea; stroke-width: 0.55; stroke-linecap: square"/>
     </g>
     <g id="line2d_32">
      <g>
       <use xlink:href="#m055d622fb0" x="321.323969" y="212.432604" style="stroke: #000000; stroke-width: 0.8"/>
      </g>
     </g>
     <g id="text_13">
      <text style="font-size: 8px; font-family: 'Arial', 'Helvetica', 'DejaVu Sans', sans-serif; text-anchor: middle" x="321.323969" y="225.158854" transform="rotate(-0 321.323969 225.158854)">15</text>
     </g>
    </g>
    <g id="xtick_10">
     <g id="line2d_33">
      <path d="M 408.326438 212.432604 
L 408.326438 118.289208 
" clip-path="url(#p5770048191)" style="fill: none; stroke: #e3e6ea; stroke-width: 0.55; stroke-linecap: square"/>
     </g>
     <g id="line2d_34">
      <g>
       <use xlink:href="#m055d622fb0" x="408.326438" y="212.432604" style="stroke: #000000; stroke-width: 0.8"/>
      </g>
     </g>
     <g id="text_14">
      <text style="font-size: 8px; font-family: 'Arial', 'Helvetica', 'DejaVu Sans', sans-serif; text-anchor: middle" x="408.326438" y="225.158854" transform="rotate(-0 408.326438 225.158854)">20</text>
     </g>
    </g>
    <g id="text_15">
     <text style="font-size: 9px; font-family: 'Arial', 'Helvetica', 'DejaVu Sans', sans-serif; text-anchor: middle" x="243.10875" y="237.300573" transform="rotate(-0 243.10875 237.300573)">time (s)</text>
    </g>
   </g>
   <g id="matplotlib.axis_4">
    <g id="ytick_5">
     <g id="line2d_35">
      <path d="M 42.22875 209.817509 
L 443.98875 209.817509 
" clip-path="url(#p5770048191)" style="fill: none; stroke: #e3e6ea; stroke-width: 0.55; stroke-linecap: square"/>
     </g>
     <g id="line2d_36">
      <g>
       <use xlink:href="#m2641d4f73c" x="42.22875" y="209.817509" style="stroke: #000000; stroke-width: 0.8"/>
      </g>
     </g>
     <g id="text_16">
      <text style="font-size: 8px; font-family: 'Arial', 'Helvetica', 'DejaVu Sans', sans-serif; text-anchor: end" x="35.22875" y="212.680634" transform="rotate(-0 35.22875 212.680634)">0.00</text>
     </g>
    </g>
    <g id="ytick_6">
     <g id="line2d_37">
      <path d="M 42.22875 188.025057 
L 443.98875 188.025057 
" clip-path="url(#p5770048191)" style="fill: none; stroke: #e3e6ea; stroke-width: 0.55; stroke-linecap: square"/>
     </g>
     <g id="line2d_38">
      <g>
       <use xlink:href="#m2641d4f73c" x="42.22875" y="188.025057" style="stroke: #000000; stroke-width: 0.8"/>
      </g>
     </g>
     <g id="text_17">
      <text style="font-size: 8px; font-family: 'Arial', 'Helvetica', 'DejaVu Sans', sans-serif; text-anchor: end" x="35.22875" y="190.888182" transform="rotate(-0 35.22875 190.888182)">0.25</text>
     </g>
    </g>
    <g id="ytick_7">
     <g id="line2d_39">
      <path d="M 42.22875 166.232604 
L 443.98875 166.232604 
" clip-path="url(#p5770048191)" style="fill: none; stroke: #e3e6ea; stroke-width: 0.55; stroke-linecap: square"/>
     </g>
     <g id="line2d_40">
      <g>
       <use xlink:href="#m2641d4f73c" x="42.22875" y="166.232604" style="stroke: #000000; stroke-width: 0.8"/>
      </g>
     </g>
     <g id="text_18">
      <text style="font-size: 8px; font-family: 'Arial', 'Helvetica', 'DejaVu Sans', sans-serif; text-anchor: end" x="35.22875" y="169.095729" transform="rotate(-0 35.22875 169.095729)">0.50</text>
     </g>
    </g>
    <g id="ytick_8">
     <g id="line2d_41">
      <path d="M 42.22875 144.440151 
L 443.98875 144.440151 
" clip-path="url(#p5770048191)" style="fill: none; stroke: #e3e6ea; stroke-width: 0.55; stroke-linecap: square"/>
     </g>
     <g id="line2d_42">
      <g>
       <use xlink:href="#m2641d4f73c" x="42.22875" y="144.440151" style="stroke: #000000; stroke-width: 0.8"/>
      </g>
     </g>
     <g id="text_19">
      <text style="font-size: 8px; font-family: 'Arial', 'Helvetica', 'DejaVu Sans', sans-serif; text-anchor: end" x="35.22875" y="147.303276" transform="rotate(-0 35.22875 147.303276)">0.75</text>
     </g>
    </g>
    <g id="ytick_9">
     <g id="line2d_43">
      <path d="M 42.22875 122.647698 
L 443.98875 122.647698 
" clip-path="url(#p5770048191)" style="fill: none; stroke: #e3e6ea; stroke-width: 0.55; stroke-linecap: square"/>
     </g>
     <g id="line2d_44">
      <g>
       <use xlink:href="#m2641d4f73c" x="42.22875" y="122.647698" style="stroke: #000000; stroke-width: 0.8"/>
      </g>
     </g>
     <g id="text_20">
      <text style="font-size: 8px; font-family: 'Arial', 'Helvetica', 'DejaVu Sans', sans-serif; text-anchor: end" x="35.22875" y="125.510823" transform="rotate(-0 35.22875 125.510823)">1.00</text>
     </g>
    </g>
    <g id="text_21">
     <!-- authority $\alpha$ -->
     <g transform="translate(13.68 186.870906) rotate(-90)">
      <text>
       <tspan x="0" y="-0.5625" style="font-size: 9px; font-family: 'Arial'">a</tspan>
       <tspan x="5.005371" y="-0.5625" style="font-size: 9px; font-family: 'Arial'">u</tspan>
       <tspan x="10.010742" y="-0.5625" style="font-size: 9px; font-family: 'Arial'">t</tspan>
       <tspan x="12.51123" y="-0.5625" style="font-size: 9px; font-family: 'Arial'">h</tspan>
       <tspan x="17.516602" y="-0.5625" style="font-size: 9px; font-family: 'Arial'">o</tspan>
       <tspan x="22.521973" y="-0.5625" style="font-size: 9px; font-family: 'Arial'">r</tspan>
       <tspan x="25.519043" y="-0.5625" style="font-size: 9px; font-family: 'Arial'">i</tspan>
       <tspan x="27.518555" y="-0.5625" style="font-size: 9px; font-family: 'Arial'">t</tspan>
       <tspan x="30.019043" y="-0.5625" style="font-size: 9px; font-family: 'Arial'">y</tspan>
       <tspan x="34.519043" y="-0.5625" style="font-size: 9px; font-family: 'Arial'"> </tspan>
       <tspan x="37.019531" y="-0.5625" style="font-style: oblique; font-size: 9px; font-family: 'DejaVu Sans'">α</tspan>
      </text>
     </g>
    </g>
   </g>
   <g id="line2d_45">
    <path d="M 60.490568 208.727887 
L 64.666687 182.895659 
L 64.840692 182.990193 
L 65.536711 185.446571 
L 65.710716 186.164473 
L 65.884721 186.23823 
L 66.058726 187.069508 
L 66.232731 186.946564 
L 66.580741 188.038429 
L 66.754746 187.299916 
L 66.928751 187.086207 
L 67.276761 185.832586 
L 69.36482 172.963967 
L 69.538825 172.981901 
L 69.71283 172.135088 
L 69.886835 172.209819 
L 72.844919 190.548535 
L 73.018924 190.392056 
L 76.673027 167.525278 
L 80.327131 190.380481 
L 81.545166 182.753123 
L 81.719171 183.344709 
L 82.937205 175.936967 
L 83.11121 175.539033 
L 87.287329 201.689977 
L 87.461333 201.97681 
L 89.027378 192.170206 
L 89.375388 194.012104 
L 91.811457 208.81186 
L 92.159467 209.227162 
L 92.507477 209.224767 
L 92.855487 208.824047 
L 93.029491 208.618094 
L 93.203496 208.160409 
L 93.551506 206.28267 
L 104.861827 135.457198 
L 105.035832 135.361026 
L 105.557847 137.650944 
L 105.731852 138.131269 
L 105.905857 137.938585 
L 108.341926 123.210594 
L 108.689936 122.788422 
L 109.211951 122.665289 
L 111.64802 122.647699 
L 111.99603 122.647698 
L 112.692049 126.441222 
L 113.214064 123.481739 
L 113.562074 122.856208 
L 113.910084 122.699826 
L 114.954114 122.648513 
L 117.912198 122.647698 
L 118.608217 127.006189 
L 119.304237 123.192509 
L 120.870281 132.999113 
L 121.566301 128.833739 
L 122.436326 123.561473 
L 122.784336 122.876142 
L 123.132346 122.704809 
L 124.00237 122.649483 
L 125.0464 122.647726 
L 125.39441 124.476155 
L 131.310578 161.523325 
L 132.354607 154.985589 
L 132.528612 155.314057 
L 139.83682 200.850404 
L 140.18483 201.733095 
L 140.358834 202.159124 
L 140.706844 203.997707 
L 141.054854 205.682805 
L 141.228859 205.918113 
L 141.402864 205.873073 
L 141.576869 205.700488 
L 141.750874 205.365038 
L 142.098884 204.145241 
L 142.272889 203.843305 
L 142.446894 203.879563 
L 142.794904 203.627941 
L 142.968909 203.777626 
L 143.316918 203.604056 
L 143.664928 202.262974 
L 144.012938 202.212635 
L 144.186943 202.324047 
L 144.708958 203.540185 
L 144.882963 203.36187 
L 145.230973 201.704166 
L 145.404978 200.614543 
L 145.578983 200.601959 
L 148.363062 183.167997 
L 148.537067 183.071659 
L 148.711071 183.67971 
L 149.407091 187.133773 
L 149.581096 186.044151 
L 149.929106 188.140368 
L 150.103111 188.256836 
L 155.671269 153.388912 
L 156.715299 159.926647 
L 157.759328 153.388912 
L 157.933333 154.478534 
L 159.673383 143.582308 
L 159.847387 144.557965 
L 163.153481 123.855135 
L 163.327486 124.553552 
L 163.675496 123.155832 
L 163.849501 122.901765 
L 164.197511 123.573276 
L 164.545521 122.879093 
L 164.893531 122.705547 
L 165.763555 122.649506 
L 166.111565 122.64815 
L 166.459575 124.457993 
L 166.63358 125.547616 
L 166.98159 123.552846 
L 167.3296 122.873985 
L 167.67761 122.70427 
L 168.547634 122.649466 
L 171.679723 122.647698 
L 173.767782 135.72317 
L 175.159822 127.006189 
L 175.333827 127.945985 
L 175.507832 127.547725 
L 176.203852 123.463277 
L 176.551861 122.851593 
L 177.073876 122.673185 
L 177.247881 122.660442 
L 177.595891 124.839687 
L 177.769896 124.022981 
L 183.686064 161.070151 
L 184.556089 155.622038 
L 191.342281 197.789309 
L 191.690291 198.65794 
L 191.864296 198.874894 
L 192.038301 199.758372 
L 192.212306 199.221518 
L 192.386311 200.250891 
L 193.256335 202.258173 
L 193.604345 203.264808 
L 193.77835 202.774562 
L 194.12636 201.027401 
L 194.300365 200.905756 
L 194.47437 200.256386 
L 196.040414 191.15083 
L 197.954469 179.541382 
L 198.824493 174.093268 
L 198.998498 174.588675 
L 200.042528 180.965941 
L 200.216533 180.454194 
L 200.390538 180.446231 
L 200.912553 177.177363 
L 201.086558 177.02885 
L 201.260563 177.554271 
L 203.000612 188.115109 
L 203.348622 188.094717 
L 203.522627 188.406276 
L 203.696632 188.473765 
L 203.870637 188.072067 
L 204.218646 188.025223 
L 204.740661 184.939754 
L 204.914666 184.98453 
L 205.088671 185.255996 
L 205.436681 187.435242 
L 205.958696 186.303068 
L 206.132701 185.828395 
L 206.306706 186.341788 
L 206.480711 185.273337 
L 206.654716 185.278901 
L 206.828721 186.310862 
L 207.002725 186.452515 
L 207.17673 186.8561 
L 207.350735 185.766477 
L 207.52474 186.8561 
L 211.526854 161.97407 
L 211.700859 162.016718 
L 213.962923 176.181812 
L 222.489165 123.263812 
L 222.837175 122.801727 
L 223.35919 122.666952 
L 225.621254 122.6477 
L 225.795259 122.647699 
L 225.969264 122.888787 
L 226.839288 128.3369 
L 227.709313 123.313054 
L 228.057323 122.814037 
L 228.579338 122.66849 
L 230.667397 122.647703 
L 232.233441 122.647698 
L 232.407446 122.875509 
L 239.019634 164.281169 
L 239.193639 163.704959 
L 243.369757 189.230178 
L 247.371871 164.168857 
L 254.158064 206.437617 
L 254.332068 206.907475 
L 254.506073 206.930419 
L 255.028088 203.862198 
L 264.772365 142.84333 
L 264.94637 143.932952 
L 268.252463 123.483721 
L 268.600473 122.856704 
L 268.948483 122.69995 
L 269.992513 122.648515 
L 271.036542 122.647711 
L 271.558557 125.679091 
L 271.732562 125.75417 
L 272.080572 123.656123 
L 272.950597 129.104236 
L 273.124602 129.058761 
L 273.298607 127.969138 
L 273.646617 129.783355 
L 273.820621 130.872978 
L 274.168631 128.693733 
L 274.342636 129.783355 
L 275.386666 123.49147 
L 275.734676 122.858641 
L 276.082686 122.700434 
L 277.126715 122.648522 
L 278.170745 122.647711 
L 278.866765 127.006202 
L 279.562784 123.192516 
L 279.910794 122.783903 
L 280.432809 122.664724 
L 280.954824 122.649826 
L 281.824849 128.09794 
L 281.998854 128.401916 
L 282.346863 130.246876 
L 282.520868 130.418651 
L 282.868878 128.239406 
L 283.564898 132.545863 
L 285.130942 123.23829 
L 285.478952 122.795346 
L 285.652957 122.98057 
L 291.74313 161.117362 
L 292.613155 155.669249 
L 299.225342 196.469456 
L 299.399347 196.032839 
L 301.313402 184.713121 
L 301.835416 183.566796 
L 302.009421 183.369907 
L 302.183426 183.950504 
L 305.315515 202.992785 
L 305.48952 202.720674 
L 306.18554 199.700544 
L 306.53355 197.881403 
L 306.707555 197.479728 
L 307.055565 196.317185 
L 307.229569 196.024593 
L 307.751584 194.384216 
L 307.925589 194.824351 
L 308.099594 194.791959 
L 308.621609 192.157896 
L 308.795614 191.64802 
L 308.969619 191.634956 
L 310.187653 187.320175 
L 310.361658 187.396768 
L 310.535663 187.233983 
L 310.883673 188.365882 
L 311.405688 187.410625 
L 311.579693 186.871324 
L 312.101708 186.655621 
L 312.449718 186.730852 
L 312.971732 186.601401 
L 313.841757 190.623895 
L 314.189767 190.094673 
L 315.059792 193.885496 
L 315.407801 195.200285 
L 315.581806 195.264339 
L 315.755811 194.99317 
L 316.103821 193.673133 
L 316.451831 191.93698 
L 316.625836 191.575778 
L 316.973846 189.794065 
L 319.93193 171.270481 
L 320.105935 170.913478 
L 320.62795 168.443921 
L 320.975959 170.623166 
L 321.323969 171.588535 
L 321.497974 171.084228 
L 325.848098 143.843662 
L 326.022103 144.193884 
L 326.892127 149.641997 
L 327.066132 149.312384 
L 331.242251 123.449381 
L 331.590261 122.848119 
L 332.112275 122.672751 
L 333.852325 122.647723 
L 340.638517 122.728263 
L 343.596601 141.251848 
L 344.292621 136.893357 
L 344.466626 136.766668 
L 345.858666 145.483649 
L 346.902695 138.945913 
L 353.862893 182.530819 
L 356.994982 163.410139 
L 362.56314 197.940985 
L 362.737144 198.240502 
L 363.085154 199.750242 
L 363.259159 199.705286 
L 363.607169 199.265729 
L 363.781174 199.226309 
L 363.955179 199.343573 
L 364.477194 201.048833 
L 364.999209 203.424216 
L 365.695228 205.0469 
L 366.217243 205.748616 
L 366.565253 205.978275 
L 367.435278 206.145585 
L 367.609283 206.115115 
L 368.131298 205.617403 
L 368.305302 205.850496 
L 368.827317 204.763435 
L 369.001322 205.098037 
L 369.175327 204.650193 
L 369.349332 205.071489 
L 369.523337 204.374396 
L 369.697342 204.948024 
L 369.871347 204.512599 
L 370.045352 204.673046 
L 370.219357 203.583423 
L 370.393362 203.851407 
L 370.741372 203.602605 
L 370.915377 203.020337 
L 371.089381 201.985675 
L 371.263386 202.066929 
L 371.437391 201.002666 
L 371.611396 201.64591 
L 371.785401 201.108685 
L 371.959406 201.135881 
L 372.133411 201.590337 
L 372.481421 199.852138 
L 372.655426 200.26308 
L 374.56948 188.846645 
L 374.743485 189.936268 
L 385.357786 123.603304 
L 385.705796 122.8866 
L 386.053806 122.707423 
L 386.923831 122.649565 
L 393.188009 122.647698 
L 393.362013 123.295275 
L 393.536018 123.488296 
L 393.884028 122.857848 
L 394.232038 122.700235 
L 395.276068 122.648519 
L 399.974201 122.647698 
L 400.322211 124.826943 
L 400.670221 123.192509 
L 401.018231 122.783901 
L 401.192236 122.811693 
L 401.540246 123.67041 
L 401.71425 123.159054 
L 401.888255 123.196634 
L 402.584275 127.555125 
L 403.280295 123.466978 
L 403.628305 122.852518 
L 404.15032 122.673301 
L 405.890369 122.647723 
L 409.022458 122.647698 
L 409.370468 123.775441 
L 409.544473 123.931137 
L 409.718478 124.525959 
L 409.892483 124.539306 
L 410.066487 124.380905 
L 410.414497 126.092149 
L 410.936512 123.280301 
L 411.284522 122.805849 
L 411.806537 122.667467 
L 414.068601 122.647701 
L 414.242606 123.076223 
L 414.938626 126.507954 
L 415.286636 128.476178 
L 415.460641 128.567443 
L 415.80865 127.432063 
L 415.982655 127.874509 
L 416.50467 130.255064 
L 416.678675 129.914687 
L 416.85268 129.274315 
L 418.940739 141.714001 
L 419.114744 141.206272 
L 421.898823 123.77231 
L 422.072828 123.821552 
L 424.160887 136.315514 
L 424.334892 135.767167 
L 424.682902 135.807482 
L 424.856907 135.430966 
L 425.378922 132.311303 
L 425.552927 132.520928 
L 425.726932 133.61055 
L 425.726932 133.61055 
" clip-path="url(#p5770048191)" style="fill: none; stroke: #b6242e; stroke-width: 1.1; stroke-linecap: square"/>
   </g>
   <g id="line2d_46">
    <path d="M 60.490568 208.727887 
L 66.928751 168.536971 
L 67.276761 167.794425 
L 67.624771 167.602752 
L 68.494795 167.47162 
L 70.06084 167.399839 
L 72.148899 167.778877 
L 73.366934 167.766487 
L 75.106983 167.714107 
L 77.195042 167.789255 
L 77.891062 167.616301 
L 78.065067 167.528904 
L 78.761087 166.613106 
L 79.283101 166.813143 
L 79.457106 166.815773 
L 80.501136 167.461117 
L 81.197156 167.451203 
L 82.7632 167.566514 
L 83.285215 167.746186 
L 84.329245 167.763034 
L 84.677254 167.603018 
L 84.851259 167.219501 
L 85.373274 164.206723 
L 85.547279 163.1171 
L 85.721284 163.034529 
L 86.243299 165.931909 
L 86.765314 166.640957 
L 87.113324 166.984517 
L 88.331358 167.281098 
L 89.027378 166.898857 
L 89.897403 167.715545 
L 90.593422 167.74884 
L 91.289442 167.534098 
L 91.811457 167.198072 
L 92.333472 166.971064 
L 93.029491 165.920561 
L 93.551506 166.092783 
L 94.073521 166.676035 
L 94.421531 166.964156 
L 94.943546 166.973866 
L 95.117551 166.782893 
L 95.465561 164.935247 
L 95.639566 163.845625 
L 95.81357 163.890729 
L 96.335585 166.843116 
L 96.683595 167.469882 
L 97.031605 167.590543 
L 97.379615 167.522068 
L 98.075635 166.91904 
L 98.423645 166.708865 
L 98.945659 166.748165 
L 99.293669 166.269801 
L 99.641679 165.715312 
L 99.989689 165.541514 
L 100.337699 165.436643 
L 100.685709 165.671872 
L 101.033719 165.763565 
L 101.555733 165.648159 
L 101.729738 165.330146 
L 102.251753 162.061278 
L 102.599763 163.948641 
L 103.121778 166.828868 
L 103.469788 167.314246 
L 103.817798 167.309759 
L 104.339812 166.91725 
L 104.861827 166.685566 
L 105.557847 166.658819 
L 105.905857 166.12041 
L 106.427872 165.31104 
L 106.775882 165.030872 
L 106.949886 164.966985 
L 107.819911 165.304709 
L 107.993916 165.125114 
L 108.167921 164.488904 
L 108.863941 160.130414 
L 109.385956 163.196815 
L 109.90797 166.275886 
L 110.25598 166.840684 
L 110.60399 166.770898 
L 111.30001 166.613207 
L 112.170035 166.608493 
L 112.518044 166.093005 
L 113.040059 165.145055 
L 113.388069 164.788703 
L 113.562074 164.742607 
L 113.736079 164.813193 
L 114.258094 165.375333 
L 114.606104 165.453441 
L 114.780109 164.805314 
L 115.476128 160.446823 
L 115.650133 160.196356 
L 116.694163 166.294994 
L 117.042173 166.738311 
L 117.564188 166.760461 
L 118.434212 166.700219 
L 118.782222 166.185583 
L 119.304237 165.272224 
L 119.652247 164.892751 
L 120.000257 164.423189 
L 120.348267 164.535267 
L 121.044286 163.542558 
L 121.218291 162.959233 
L 122.262321 156.486371 
L 123.828365 166.035407 
L 124.176375 166.58552 
L 124.524385 166.685338 
L 124.872395 166.576464 
L 125.568415 166.236501 
L 126.09043 166.04821 
L 126.612444 165.454546 
L 126.960454 165.737191 
L 127.482469 165.167459 
L 127.830479 164.270005 
L 128.874509 157.73227 
L 129.048514 158.321939 
L 130.440553 166.569288 
L 130.788563 166.958062 
L 131.310578 166.921254 
L 132.180602 166.855647 
L 132.528612 166.908042 
L 132.876622 166.741253 
L 133.224632 166.654927 
L 133.746647 166.562362 
L 134.442667 166.326728 
L 134.616672 166.183146 
L 134.790676 165.576978 
L 135.486696 161.218487 
L 136.356721 166.549669 
L 136.704731 167.22006 
L 137.052741 167.323649 
L 137.74876 167.209527 
L 138.618785 166.949411 
L 139.48881 167.021658 
L 139.83682 166.963947 
L 140.706844 166.975577 
L 141.228859 166.819834 
L 141.402864 166.531855 
L 141.576869 165.876878 
L 142.272889 162.020474 
L 143.142913 167.008046 
L 143.490923 167.438161 
L 144.012938 167.469914 
L 144.708958 167.263023 
L 145.230973 167.075157 
L 147.667042 167.157822 
L 148.015052 167.071501 
L 148.189057 166.92858 
L 148.363062 166.596667 
L 148.711071 164.462911 
L 148.885076 164.217616 
L 149.407091 166.824097 
L 149.755101 167.411096 
L 150.103111 167.55265 
L 151.147141 167.444391 
L 152.365175 167.11207 
L 153.93122 167.182742 
L 154.801244 167.138996 
L 154.975249 167.021302 
L 155.323259 165.828567 
L 155.497264 165.344219 
L 155.671269 165.668014 
L 156.019279 166.881728 
L 156.367289 167.406434 
L 156.715299 167.552359 
L 157.411318 167.523013 
L 158.107338 167.374576 
L 159.151368 167.117763 
L 160.369402 167.142999 
L 161.413432 167.140569 
L 161.761442 166.902611 
L 161.935447 166.397912 
L 162.283457 164.218666 
L 162.457462 164.498098 
L 162.979476 166.878147 
L 163.327486 167.375795 
L 163.675496 167.493783 
L 164.545521 167.446498 
L 165.241541 167.225628 
L 165.763555 167.070654 
L 166.98159 167.092999 
L 168.373629 166.975382 
L 168.547634 166.740047 
L 168.895644 164.984528 
L 169.069649 163.894905 
L 169.243654 164.257031 
L 169.591664 166.198265 
L 169.939674 167.084067 
L 170.287684 167.349038 
L 170.983703 167.357111 
L 171.679723 167.203577 
L 172.723753 166.99771 
L 174.811812 166.951787 
L 174.985817 166.836328 
L 175.159822 166.534327 
L 175.507832 164.714803 
L 176.203852 160.529088 
L 177.247881 166.630768 
L 177.595891 167.067959 
L 177.943901 167.15999 
L 178.639921 166.988925 
L 178.987931 166.806214 
L 179.68395 166.878164 
L 180.205965 166.929359 
L 181.598005 166.859444 
L 181.77201 166.759102 
L 181.946014 166.395625 
L 182.294024 164.519526 
L 182.990044 160.584085 
L 184.034074 166.641519 
L 184.382084 167.053054 
L 184.904098 167.037662 
L 185.426113 166.868704 
L 185.774123 166.634237 
L 186.470143 166.785828 
L 186.992158 166.970522 
L 188.384197 166.848254 
L 188.732207 166.602209 
L 189.254222 166.022433 
L 189.428227 166.09136 
L 190.472256 167.148146 
L 190.994271 167.27442 
L 191.864296 167.146338 
L 192.908326 166.959145 
L 193.77835 167.128933 
L 195.17039 167.017332 
L 196.214419 166.572288 
L 196.562429 166.75189 
L 197.258449 167.215782 
L 197.780464 167.288415 
L 198.824493 167.162108 
L 199.520513 167.075517 
L 200.912553 167.117585 
L 201.608572 166.990667 
L 201.956582 166.642757 
L 202.478597 165.496849 
L 202.652602 165.138612 
L 202.826607 165.210555 
L 203.870637 167.082604 
L 204.392651 167.238787 
L 205.436681 167.228985 
L 206.828721 167.167863 
L 208.394765 166.982752 
L 208.91678 166.26437 
L 209.438795 165.374795 
L 209.786804 166.196153 
L 210.308819 166.896288 
L 210.830834 167.128525 
L 211.352849 167.190895 
L 212.048869 167.113533 
L 212.396879 166.957102 
L 212.744888 166.934567 
L 213.266903 167.088477 
L 213.962923 167.041564 
L 214.832948 166.940461 
L 215.006953 166.805191 
L 215.180958 166.305215 
L 216.224987 159.895334 
L 217.095012 165.343448 
L 217.791032 166.519163 
L 218.661056 166.771486 
L 218.835061 166.688808 
L 219.183071 166.327604 
L 219.531081 166.213959 
L 219.705086 165.896286 
L 220.053096 165.978065 
L 220.401106 166.058727 
L 221.27113 164.429469 
L 223.185185 152.44362 
L 223.35919 152.737834 
L 225.099239 163.318721 
L 225.273244 163.218521 
L 225.969264 159.048355 
L 226.143269 157.958733 
L 226.317274 157.634667 
L 226.665283 159.536375 
L 227.013293 161.423219 
L 227.187298 161.888395 
L 227.361303 162.010934 
L 227.709313 161.518385 
L 227.883318 160.917931 
L 229.449362 151.187517 
L 229.623367 150.097894 
L 229.797372 149.797648 
L 231.711427 161.783497 
L 231.885432 161.727316 
L 233.103466 154.099958 
L 233.277471 154.507767 
L 233.973491 158.590553 
L 234.147496 158.852019 
L 234.321501 158.904706 
L 234.495506 158.741736 
L 234.669511 157.762026 
L 235.887545 164.778144 
L 236.40956 165.032905 
L 236.75757 165.469778 
L 236.931575 165.394838 
L 237.279585 165.806245 
L 237.627594 165.987506 
L 237.975604 166.136228 
L 238.149609 166.246191 
L 238.497619 166.180888 
L 238.845629 166.20461 
L 239.193639 166.010386 
L 239.541649 165.553967 
L 239.889659 165.072835 
L 240.237669 165.017269 
L 240.411673 164.851277 
L 241.107693 163.674908 
L 241.977718 166.493535 
L 242.325728 165.90369 
L 243.021748 161.545199 
L 243.195752 161.890629 
L 243.891772 165.972466 
L 244.239782 166.702844 
L 244.413787 166.78451 
L 244.761797 166.6155 
L 245.283812 166.127614 
L 245.631822 165.977068 
L 245.979831 164.155715 
L 246.675851 159.969668 
L 247.719881 164.33353 
L 247.893886 164.488541 
L 248.241896 164.314934 
L 248.589906 163.335817 
L 248.937915 163.178021 
L 249.11192 162.883791 
L 249.285925 163.074342 
L 249.45993 162.235356 
L 249.633935 161.962295 
L 250.50396 166.113237 
L 251.025975 166.721378 
L 251.19998 166.639254 
L 252.070004 165.356266 
L 252.244009 165.219263 
L 252.592019 164.339227 
L 253.114034 162.799355 
L 253.636049 159.981372 
L 254.332068 162.808393 
L 254.506073 163.15922 
L 254.680078 162.843078 
L 255.202093 163.091285 
L 255.724108 164.082784 
L 256.420128 166.865341 
L 256.942143 167.46632 
L 257.116147 167.478036 
L 257.464157 167.181636 
L 257.986172 166.410359 
L 258.508187 165.432031 
L 259.726222 164.474663 
L 260.248236 161.423196 
L 260.422241 160.856711 
L 260.944256 163.18768 
L 261.466271 162.834267 
L 261.988286 163.146742 
L 262.162291 163.269879 
L 262.336296 163.137146 
L 262.510301 163.414556 
L 263.032315 165.78316 
L 263.20632 165.753345 
L 263.380325 165.558253 
L 263.90234 164.622847 
L 264.25035 165.062872 
L 264.59836 165.513882 
L 264.94637 165.713427 
L 265.468384 165.144416 
L 265.816394 164.809545 
L 265.990399 164.789225 
L 267.034429 158.462536 
L 267.208434 158.611009 
L 267.904454 162.802743 
L 268.252463 163.32961 
L 268.600473 164.207018 
L 269.122488 163.422271 
L 269.470498 163.716706 
L 269.644503 163.564838 
L 269.992513 163.932918 
L 271.036542 165.964896 
L 271.210547 166.170267 
L 271.384552 166.107159 
L 272.080572 165.168204 
L 272.602587 163.363429 
L 273.472612 157.915316 
L 273.646617 158.351426 
L 274.342636 162.602348 
L 274.864651 163.561773 
L 275.038656 163.396706 
L 275.386666 162.119435 
L 275.734676 161.935373 
L 275.908681 162.350695 
L 276.082686 162.386111 
L 276.430696 163.415557 
L 277.126715 166.35933 
L 277.30072 166.442688 
L 277.64873 165.975939 
L 277.822735 165.657465 
L 278.170745 165.629218 
L 278.34475 165.707155 
L 278.69276 165.34779 
L 279.04077 164.595797 
L 279.562784 163.454638 
L 279.736789 163.427076 
L 279.910794 163.666896 
L 280.258804 164.583437 
L 280.432809 164.442643 
L 280.954824 163.100634 
L 281.476839 163.356143 
L 281.824849 163.170822 
L 282.172858 162.75184 
L 282.520868 162.759526 
L 282.694873 162.691802 
L 282.868878 162.469634 
L 283.564898 165.032797 
L 284.260918 164.92416 
L 285.130942 165.693688 
L 285.478952 165.356207 
L 286.000967 164.59362 
L 286.348977 164.432958 
L 286.522982 164.543796 
L 286.696987 164.440874 
L 287.044997 163.345881 
L 287.393007 162.000272 
L 287.567012 161.874395 
L 287.741016 161.961697 
L 288.263031 163.338591 
L 288.437036 163.543733 
L 288.785046 164.427834 
L 288.959051 164.581722 
L 289.655071 163.304537 
L 290.6991 165.212695 
L 291.04711 165.747642 
L 291.39512 166.332034 
L 291.74313 166.339829 
L 292.265145 165.993932 
L 292.961165 165.355677 
L 293.13517 165.265595 
L 293.483179 164.762865 
L 293.831189 163.996795 
L 294.005194 163.939097 
L 294.527209 164.212446 
L 294.875219 163.480629 
L 295.049224 163.41797 
L 295.397234 163.016435 
L 295.571239 163.232141 
L 295.745244 162.922639 
L 296.093253 162.174605 
L 296.267258 161.911424 
L 296.615268 162.317262 
L 296.963278 163.774836 
L 297.485293 165.865813 
L 297.833303 166.257232 
L 299.051337 166.402154 
L 299.921362 166.097016 
L 300.617382 166.087762 
L 300.965392 166.12901 
L 301.313402 165.462988 
L 301.661411 164.767835 
L 302.009421 164.386814 
L 302.705441 163.19234 
L 303.053451 162.553401 
L 303.227456 162.612637 
L 303.401461 162.9696 
L 304.097481 165.780756 
L 304.619495 166.143501 
L 305.14151 166.490382 
L 305.48952 166.739718 
L 306.011535 166.731587 
L 306.88156 166.587564 
L 307.577579 166.495596 
L 307.925589 166.240658 
L 308.273599 166.045271 
L 308.621609 166.008042 
L 309.839643 165.414223 
L 310.013648 165.357644 
L 310.883673 166.547122 
L 311.579693 166.463048 
L 312.449718 167.096915 
L 313.145737 167.181929 
L 314.189767 167.093534 
L 314.885787 166.994196 
L 315.755811 166.756167 
L 316.451831 166.760355 
L 316.973846 166.975463 
L 317.321856 167.112429 
L 318.713895 167.145355 
L 319.409915 167.306727 
L 320.27994 167.293022 
L 321.323969 167.173424 
L 323.064019 167.139905 
L 323.934043 167.258159 
L 324.978073 167.189498 
L 325.848098 167.335941 
L 327.240137 167.352979 
L 327.588147 167.301682 
L 328.284167 167.3243 
L 330.372226 167.199659 
L 330.720236 167.282516 
L 331.068246 167.14342 
L 331.590261 167.233017 
L 334.548345 167.376159 
L 336.288394 167.295639 
L 337.158419 167.356475 
L 337.854438 167.311581 
L 338.724463 167.375382 
L 339.594488 167.425207 
L 348.46874 167.209848 
L 348.990754 167.151117 
L 350.556799 167.351104 
L 351.948838 167.422036 
L 352.818863 167.407971 
L 353.514883 167.26693 
L 354.036898 167.306057 
L 354.906922 167.055656 
L 355.602942 166.783628 
L 355.950952 166.990793 
L 356.298962 167.283586 
L 356.820977 167.377029 
L 358.039011 167.384487 
L 359.257046 167.289655 
L 359.953065 166.84831 
L 360.649085 167.03312 
L 361.345105 166.62381 
L 361.693115 166.24449 
L 362.389135 165.29711 
L 362.56314 165.59328 
L 362.911149 166.531586 
L 363.259159 167.020088 
L 363.607169 167.213479 
L 364.825204 167.357935 
L 366.913263 167.033532 
L 367.261273 166.683102 
L 367.609283 165.953917 
L 368.653312 163.038223 
L 368.827317 162.832338 
L 369.001322 162.923923 
L 369.175327 163.193503 
L 369.523337 165.215097 
L 370.219357 166.74956 
L 370.567367 167.026715 
L 371.437391 167.215309 
L 372.133411 167.257276 
L 373.003436 167.013061 
L 373.351446 166.806634 
L 373.525451 166.528988 
L 374.22147 163.849735 
L 374.56948 162.789849 
L 374.743485 162.663194 
L 375.439505 161.624435 
L 375.61351 161.694395 
L 375.787515 161.966493 
L 376.135525 164.027669 
L 376.483535 164.541819 
L 377.005549 166.054221 
L 377.353559 166.50009 
L 377.701569 166.640727 
L 378.049579 166.689422 
L 378.571594 166.909275 
L 379.441618 166.821401 
L 379.789628 166.488582 
L 380.137638 165.809048 
L 380.485648 164.038995 
L 381.007663 161.463326 
L 381.181668 160.915268 
L 381.355673 160.891979 
L 381.529678 160.470091 
L 381.877688 160.288348 
L 382.051693 159.854804 
L 382.399702 159.871824 
L 382.921717 162.920903 
L 383.095722 163.153121 
L 383.269727 163.179483 
L 383.617737 163.885307 
L 384.139752 164.984966 
L 385.183781 166.10883 
L 385.705796 166.172257 
L 385.879801 166.186565 
L 386.053806 165.875934 
L 386.401816 164.291229 
L 387.445846 159.112021 
L 387.793855 158.70796 
L 388.141865 158.153865 
L 388.31587 157.854225 
L 388.489875 158.165258 
L 388.66388 158.152568 
L 389.01189 159.014017 
L 389.185895 159.29573 
L 389.533905 161.345844 
L 389.881915 161.4422 
L 390.40393 162.770423 
L 390.577934 162.727796 
L 390.751939 162.255722 
L 390.925944 162.241696 
L 391.099949 162.343338 
L 391.969974 164.507424 
L 392.317984 165.155232 
L 392.665994 164.827068 
L 393.014004 163.880051 
L 393.188009 163.862141 
L 393.536018 164.733356 
L 393.710023 164.304521 
L 394.232038 161.706644 
L 394.406043 161.415317 
L 394.754053 159.923724 
L 394.928058 159.395579 
L 395.276068 159.875845 
L 395.624078 159.419125 
L 395.798083 159.990459 
L 395.972088 159.717052 
L 396.320097 160.547303 
L 397.712137 165.645836 
L 397.886142 165.592797 
L 398.408157 165.149162 
L 398.582162 165.319311 
L 399.104176 166.252533 
L 399.278181 166.303502 
L 399.452186 166.206585 
L 399.800196 165.787518 
L 399.974201 165.256259 
L 401.018231 159.305414 
L 401.192236 159.957222 
L 401.366241 160.044237 
L 401.540246 159.919334 
L 401.71425 160.237799 
L 402.06226 159.803487 
L 402.584275 160.859568 
L 403.10629 161.818767 
L 403.280295 161.59028 
L 403.4543 161.744824 
L 403.628305 162.29369 
L 403.976315 164.136668 
L 404.324325 165.32589 
L 404.672334 165.694343 
L 404.846339 165.435402 
L 405.194349 164.716242 
L 405.368354 164.595657 
L 405.716364 165.566368 
L 406.064374 166.222575 
L 406.238379 166.006919 
L 406.586389 164.964617 
L 407.456413 160.690237 
L 407.630418 160.51203 
L 407.804423 161.601653 
L 408.152433 162.108123 
L 408.500443 161.17949 
L 408.674448 160.944112 
L 408.848453 161.165097 
L 409.196463 160.304046 
L 409.370468 160.334299 
L 409.718478 160.717417 
L 409.892483 160.63837 
L 410.240492 160.231958 
L 410.414497 160.613566 
L 411.458527 166.092737 
L 411.806537 166.348303 
L 411.980542 166.242819 
L 412.154547 165.972723 
L 412.502557 166.161327 
L 413.024571 166.551669 
L 413.894596 165.936299 
L 414.242606 166.353232 
L 414.416611 165.948298 
L 414.938626 163.230088 
L 415.286636 162.638705 
L 415.460641 162.451472 
L 415.80865 161.07355 
L 416.15666 160.433891 
L 416.330665 160.164115 
L 416.678675 161.018549 
L 417.20069 161.721724 
L 418.070715 165.295463 
L 418.418724 166.195626 
L 418.592729 166.35664 
L 419.114744 166.272074 
L 419.636759 166.399403 
L 419.810764 166.637762 
L 419.984769 166.681041 
L 420.680789 166.032898 
L 421.550813 161.520687 
L 421.724818 161.442772 
L 422.246833 163.118799 
L 422.420838 163.172445 
L 422.594843 162.60416 
L 422.768848 162.629404 
L 423.290863 162.330986 
L 423.464868 162.221416 
L 423.638873 162.247597 
L 423.812878 162.420686 
L 424.160887 161.361555 
L 424.682902 158.647922 
L 425.726932 165.145204 
L 425.726932 165.145204 
" clip-path="url(#p5770048191)" style="fill: none; stroke: #6e141c; stroke-width: 1.1; stroke-linecap: square"/>
   </g>
   <g id="patch_7">
    <path d="M 42.22875 212.432604 
L 42.22875 118.289208 
" style="fill: none; stroke: #000000; stroke-width: 0.8; stroke-linejoin: miter; stroke-linecap: square"/>
   </g>
   <g id="patch_8">
    <path d="M 42.22875 212.432604 
L 443.98875 212.432604 
" style="fill: none; stroke: #000000; stroke-width: 0.8; stroke-linejoin: miter; stroke-linecap: square"/>
   </g>
   <g id="text_22">
    <text style="font-weight: 700; font-size: 11px; font-family: 'Arial', 'Helvetica', 'DejaVu Sans', sans-serif; text-anchor: end" x="18.12315" y="120.514198" transform="rotate(-0 18.12315 120.514198)">b</text>
   </g>
   <g id="text_23">
    <!-- PAC-S: 31.2% of steps $\alpha&gt;0.9$;  PAC-RL: 97.0% of steps $\alpha\in[0.4,0.6]$ -->
    <g style="fill: #555555" transform="translate(233.05915 198.730234)">
     <text>
      <tspan x="0" y="-0.4375" style="font-size: 6.4px; font-family: 'Arial'; fill: #555555">P</tspan>
      <tspan x="4.252075" y="-0.4375" style="font-size: 6.4px; font-family: 'Arial'; fill: #555555">A</tspan>
      <tspan x="8.50415" y="-0.4375" style="font-size: 6.4px; font-family: 'Arial'; fill: #555555">C</tspan>
      <tspan x="13.107971" y="-0.4375" style="font-size: 6.4px; font-family: 'Arial'; fill: #555555">-</tspan>
      <tspan x="15.230896" y="-0.4375" style="font-size: 6.4px; font-family: 'Arial'; fill: #555555">S</tspan>
      <tspan x="19.482971" y="-0.4375" style="font-size: 6.4px; font-family: 'Arial'; fill: #555555">:</tspan>
      <tspan x="21.25415" y="-0.4375" style="font-size: 6.4px; font-family: 'Arial'; fill: #555555"> </tspan>
      <tspan x="23.02533" y="-0.4375" style="font-size: 6.4px; font-family: 'Arial'; fill: #555555">3</tspan>
      <tspan x="26.570801" y="-0.4375" style="font-size: 6.4px; font-family: 'Arial'; fill: #555555">1</tspan>
      <tspan x="30.116272" y="-0.4375" style="font-size: 6.4px; font-family: 'Arial'; fill: #555555">.</tspan>
      <tspan x="31.887451" y="-0.4375" style="font-size: 6.4px; font-family: 'Arial'; fill: #555555">2</tspan>
      <tspan x="35.432922" y="-0.4375" style="font-size: 6.4px; font-family: 'Arial'; fill: #555555">%</tspan>
      <tspan x="41.101318" y="-0.4375" style="font-size: 6.4px; font-family: 'Arial'; fill: #555555"> </tspan>
      <tspan x="42.872498" y="-0.4375" style="font-size: 6.4px; font-family: 'Arial'; fill: #555555">o</tspan>
      <tspan x="46.417969" y="-0.4375" style="font-size: 6.4px; font-family: 'Arial'; fill: #555555">f</tspan>
      <tspan x="48.189148" y="-0.4375" style="font-size: 6.4px; font-family: 'Arial'; fill: #555555"> </tspan>
      <tspan x="49.960327" y="-0.4375" style="font-size: 6.4px; font-family: 'Arial'; fill: #555555">s</tspan>
      <tspan x="53.147827" y="-0.4375" style="font-size: 6.4px; font-family: 'Arial'; fill: #555555">t</tspan>
      <tspan x="54.919006" y="-0.4375" style="font-size: 6.4px; font-family: 'Arial'; fill: #555555">e</tspan>
      <tspan x="58.464478" y="-0.4375" style="font-size: 6.4px; font-family: 'Arial'; fill: #555555">p</tspan>
      <tspan x="62.009949" y="-0.4375" style="font-size: 6.4px; font-family: 'Arial'; fill: #555555">s</tspan>
      <tspan x="65.197449" y="-0.4375" style="font-size: 6.4px; font-family: 'Arial'; fill: #555555"> </tspan>
      <tspan x="89.134827" y="-0.4375" style="font-size: 6.4px; font-family: 'Arial'; fill: #555555">;</tspan>
      <tspan x="90.906006" y="-0.4375" style="font-size: 6.4px; font-family: 'Arial'; fill: #555555"> </tspan>
      <tspan x="92.677185" y="-0.4375" style="font-size: 6.4px; font-family: 'Arial'; fill: #555555"> </tspan>
      <tspan x="94.448364" y="-0.4375" style="font-size: 6.4px; font-family: 'Arial'; fill: #555555">P</tspan>
      <tspan x="98.700439" y="-0.4375" style="font-size: 6.4px; font-family: 'Arial'; fill: #555555">A</tspan>
      <tspan x="102.952515" y="-0.4375" style="font-size: 6.4px; font-family: 'Arial'; fill: #555555">C</tspan>
      <tspan x="107.556335" y="-0.4375" style="font-size: 6.4px; font-family: 'Arial'; fill: #555555">-</tspan>
      <tspan x="109.67926" y="-0.4375" style="font-size: 6.4px; font-family: 'Arial'; fill: #555555">R</tspan>
      <tspan x="114.283081" y="-0.4375" style="font-size: 6.4px; font-family: 'Arial'; fill: #555555">L</tspan>
      <tspan x="117.828552" y="-0.4375" style="font-size: 6.4px; font-family: 'Arial'; fill: #555555">:</tspan>
      <tspan x="119.599731" y="-0.4375" style="font-size: 6.4px; font-family: 'Arial'; fill: #555555"> </tspan>
      <tspan x="121.370911" y="-0.4375" style="font-size: 6.4px; font-family: 'Arial'; fill: #555555">9</tspan>
      <tspan x="124.916382" y="-0.4375" style="font-size: 6.4px; font-family: 'Arial'; fill: #555555">7</tspan>
      <tspan x="128.461853" y="-0.4375" style="font-size: 6.4px; font-family: 'Arial'; fill: #555555">.</tspan>
      <tspan x="130.233032" y="-0.4375" style="font-size: 6.4px; font-family: 'Arial'; fill: #555555">0</tspan>
      <tspan x="133.778503" y="-0.4375" style="font-size: 6.4px; font-family: 'Arial'; fill: #555555">%</tspan>
      <tspan x="139.446899" y="-0.4375" style="font-size: 6.4px; font-family: 'Arial'; fill: #555555"> </tspan>
      <tspan x="141.218079" y="-0.4375" style="font-size: 6.4px; font-family: 'Arial'; fill: #555555">o</tspan>
      <tspan x="144.76355" y="-0.4375" style="font-size: 6.4px; font-family: 'Arial'; fill: #555555">f</tspan>
      <tspan x="146.534729" y="-0.4375" style="font-size: 6.4px; font-family: 'Arial'; fill: #555555"> </tspan>
      <tspan x="148.305908" y="-0.4375" style="font-size: 6.4px; font-family: 'Arial'; fill: #555555">s</tspan>
      <tspan x="151.493408" y="-0.4375" style="font-size: 6.4px; font-family: 'Arial'; fill: #555555">t</tspan>
      <tspan x="153.264587" y="-0.4375" style="font-size: 6.4px; font-family: 'Arial'; fill: #555555">e</tspan>
      <tspan x="156.810059" y="-0.4375" style="font-size: 6.4px; font-family: 'Arial'; fill: #555555">p</tspan>
      <tspan x="160.35553" y="-0.4375" style="font-size: 6.4px; font-family: 'Arial'; fill: #555555">s</tspan>
      <tspan x="163.54303" y="-0.4375" style="font-size: 6.4px; font-family: 'Arial'; fill: #555555"> </tspan>
      <tspan x="66.968628" y="-0.4375" style="font-style: oblique; font-size: 6.4px; font-family: 'DejaVu Sans'; fill: #555555">α</tspan>
      <tspan x="165.314209" y="-0.4375" style="font-style: oblique; font-size: 6.4px; font-family: 'DejaVu Sans'; fill: #555555">α</tspan>
      <tspan x="72.412903" y="-0.4375" style="font-size: 6.4px; font-family: 'DejaVu Sans'; fill: #555555">&gt;</tspan>
      <tspan x="78.99646" y="-0.4375" style="font-size: 6.4px; font-family: 'DejaVu Sans'; fill: #555555">0</tspan>
      <tspan x="83.052429" y="-0.4375" style="font-size: 6.4px; font-family: 'DejaVu Sans'; fill: #555555">.</tspan>
      <tspan x="85.078857" y="-0.4375" style="font-size: 6.4px; font-family: 'DejaVu Sans'; fill: #555555">9</tspan>
      <tspan x="170.758484" y="-0.4375" style="font-size: 6.4px; font-family: 'DejaVu Sans'; fill: #555555">∈</tspan>
      <tspan x="177.553711" y="-0.4375" style="font-size: 6.4px; font-family: 'DejaVu Sans'; fill: #555555">[</tspan>
      <tspan x="180.040833" y="-0.4375" style="font-size: 6.4px; font-family: 'DejaVu Sans'; fill: #555555">0</tspan>
      <tspan x="184.096802" y="-0.4375" style="font-size: 6.4px; font-family: 'DejaVu Sans'; fill: #555555">.</tspan>
      <tspan x="186.12323" y="-0.4375" style="font-size: 6.4px; font-family: 'DejaVu Sans'; fill: #555555">4</tspan>
      <tspan x="190.179199" y="-0.4375" style="font-size: 6.4px; font-family: 'DejaVu Sans'; fill: #555555">,</tspan>
      <tspan x="193.447632" y="-0.4375" style="font-size: 6.4px; font-family: 'DejaVu Sans'; fill: #555555">0</tspan>
      <tspan x="197.503601" y="-0.4375" style="font-size: 6.4px; font-family: 'DejaVu Sans'; fill: #555555">.</tspan>
      <tspan x="199.530029" y="-0.4375" style="font-size: 6.4px; font-family: 'DejaVu Sans'; fill: #555555">6</tspan>
      <tspan x="203.585999" y="-0.4375" style="font-size: 6.4px; font-family: 'DejaVu Sans'; fill: #555555">]</tspan>
     </text>
    </g>
    <!-- family-mean $\alpha$ over the OOD actuator family: PAC-S 0.63, PAC-RL 0.50 -->
    <g style="fill: #555555" transform="translate(235.81115 206.317434)">
     <text>
      <tspan x="0" y="-0.625" style="font-size: 6.4px; font-family: 'Arial'; fill: #555555">f</tspan>
      <tspan x="1.771179" y="-0.625" style="font-size: 6.4px; font-family: 'Arial'; fill: #555555">a</tspan>
      <tspan x="5.31665" y="-0.625" style="font-size: 6.4px; font-family: 'Arial'; fill: #555555">m</tspan>
      <tspan x="10.627075" y="-0.625" style="font-size: 6.4px; font-family: 'Arial'; fill: #555555">i</tspan>
      <tspan x="12.043396" y="-0.625" style="font-size: 6.4px; font-family: 'Arial'; fill: #555555">l</tspan>
      <tspan x="13.459717" y="-0.625" style="font-size: 6.4px; font-family: 'Arial'; fill: #555555">y</tspan>
      <tspan x="16.647217" y="-0.625" style="font-size: 6.4px; font-family: 'Arial'; fill: #555555">-</tspan>
      <tspan x="18.770142" y="-0.625" style="font-size: 6.4px; font-family: 'Arial'; fill: #555555">m</tspan>
      <tspan x="24.080566" y="-0.625" style="font-size: 6.4px; font-family: 'Arial'; fill: #555555">e</tspan>
      <tspan x="27.626038" y="-0.625" style="font-size: 6.4px; font-family: 'Arial'; fill: #555555">a</tspan>
      <tspan x="31.171509" y="-0.625" style="font-size: 6.4px; font-family: 'Arial'; fill: #555555">n</tspan>
      <tspan x="34.71698" y="-0.625" style="font-size: 6.4px; font-family: 'Arial'; fill: #555555"> </tspan>
      <tspan x="40.69043" y="-0.625" style="font-size: 6.4px; font-family: 'Arial'; fill: #555555"> </tspan>
      <tspan x="42.461609" y="-0.625" style="font-size: 6.4px; font-family: 'Arial'; fill: #555555">o</tspan>
      <tspan x="46.00708" y="-0.625" style="font-size: 6.4px; font-family: 'Arial'; fill: #555555">v</tspan>
      <tspan x="49.19458" y="-0.625" style="font-size: 6.4px; font-family: 'Arial'; fill: #555555">e</tspan>
      <tspan x="52.740051" y="-0.625" style="font-size: 6.4px; font-family: 'Arial'; fill: #555555">r</tspan>
      <tspan x="54.862976" y="-0.625" style="font-size: 6.4px; font-family: 'Arial'; fill: #555555"> </tspan>
      <tspan x="56.634155" y="-0.625" style="font-size: 6.4px; font-family: 'Arial'; fill: #555555">t</tspan>
      <tspan x="58.405334" y="-0.625" style="font-size: 6.4px; font-family: 'Arial'; fill: #555555">h</tspan>
      <tspan x="61.950806" y="-0.625" style="font-size: 6.4px; font-family: 'Arial'; fill: #555555">e</tspan>
      <tspan x="65.496277" y="-0.625" style="font-size: 6.4px; font-family: 'Arial'; fill: #555555"> </tspan>
      <tspan x="67.267456" y="-0.625" style="font-size: 6.4px; font-family: 'Arial'; fill: #555555">O</tspan>
      <tspan x="72.226135" y="-0.625" style="font-size: 6.4px; font-family: 'Arial'; fill: #555555">O</tspan>
      <tspan x="77.184814" y="-0.625" style="font-size: 6.4px; font-family: 'Arial'; fill: #555555">D</tspan>
      <tspan x="81.788635" y="-0.625" style="font-size: 6.4px; font-family: 'Arial'; fill: #555555"> </tspan>
      <tspan x="83.559814" y="-0.625" style="font-size: 6.4px; font-family: 'Arial'; fill: #555555">a</tspan>
      <tspan x="87.105286" y="-0.625" style="font-size: 6.4px; font-family: 'Arial'; fill: #555555">c</tspan>
      <tspan x="90.292786" y="-0.625" style="font-size: 6.4px; font-family: 'Arial'; fill: #555555">t</tspan>
      <tspan x="92.063965" y="-0.625" style="font-size: 6.4px; font-family: 'Arial'; fill: #555555">u</tspan>
      <tspan x="95.609436" y="-0.625" style="font-size: 6.4px; font-family: 'Arial'; fill: #555555">a</tspan>
      <tspan x="99.154907" y="-0.625" style="font-size: 6.4px; font-family: 'Arial'; fill: #555555">t</tspan>
      <tspan x="100.926086" y="-0.625" style="font-size: 6.4px; font-family: 'Arial'; fill: #555555">o</tspan>
      <tspan x="104.471558" y="-0.625" style="font-size: 6.4px; font-family: 'Arial'; fill: #555555">r</tspan>
      <tspan x="106.594482" y="-0.625" style="font-size: 6.4px; font-family: 'Arial'; fill: #555555"> </tspan>
      <tspan x="108.365662" y="-0.625" style="font-size: 6.4px; font-family: 'Arial'; fill: #555555">f</tspan>
      <tspan x="110.136841" y="-0.625" style="font-size: 6.4px; font-family: 'Arial'; fill: #555555">a</tspan>
      <tspan x="113.682312" y="-0.625" style="font-size: 6.4px; font-family: 'Arial'; fill: #555555">m</tspan>
      <tspan x="118.992737" y="-0.625" style="font-size: 6.4px; font-family: 'Arial'; fill: #555555">i</tspan>
      <tspan x="120.409058" y="-0.625" style="font-size: 6.4px; font-family: 'Arial'; fill: #555555">l</tspan>
      <tspan x="121.825378" y="-0.625" style="font-size: 6.4px; font-family: 'Arial'; fill: #555555">y</tspan>
      <tspan x="125.012878" y="-0.625" style="font-size: 6.4px; font-family: 'Arial'; fill: #555555">:</tspan>
      <tspan x="126.784058" y="-0.625" style="font-size: 6.4px; font-family: 'Arial'; fill: #555555"> </tspan>
      <tspan x="128.555237" y="-0.625" style="font-size: 6.4px; font-family: 'Arial'; fill: #555555">P</tspan>
      <tspan x="132.807312" y="-0.625" style="font-size: 6.4px; font-family: 'Arial'; fill: #555555">A</tspan>
      <tspan x="137.059387" y="-0.625" style="font-size: 6.4px; font-family: 'Arial'; fill: #555555">C</tspan>
      <tspan x="141.663208" y="-0.625" style="font-size: 6.4px; font-family: 'Arial'; fill: #555555">-</tspan>
      <tspan x="143.786133" y="-0.625" style="font-size: 6.4px; font-family: 'Arial'; fill: #555555">S</tspan>
      <tspan x="148.038208" y="-0.625" style="font-size: 6.4px; font-family: 'Arial'; fill: #555555"> </tspan>
      <tspan x="149.809387" y="-0.625" style="font-size: 6.4px; font-family: 'Arial'; fill: #555555">0</tspan>
      <tspan x="153.354858" y="-0.625" style="font-size: 6.4px; font-family: 'Arial'; fill: #555555">.</tspan>
      <tspan x="155.126038" y="-0.625" style="font-size: 6.4px; font-family: 'Arial'; fill: #555555">6</tspan>
      <tspan x="158.671509" y="-0.625" style="font-size: 6.4px; font-family: 'Arial'; fill: #555555">3</tspan>
      <tspan x="162.21698" y="-0.625" style="font-size: 6.4px; font-family: 'Arial'; fill: #555555">,</tspan>
      <tspan x="163.988159" y="-0.625" style="font-size: 6.4px; font-family: 'Arial'; fill: #555555"> </tspan>
      <tspan x="165.759338" y="-0.625" style="font-size: 6.4px; font-family: 'Arial'; fill: #555555">P</tspan>
      <tspan x="170.011414" y="-0.625" style="font-size: 6.4px; font-family: 'Arial'; fill: #555555">A</tspan>
      <tspan x="174.263489" y="-0.625" style="font-size: 6.4px; font-family: 'Arial'; fill: #555555">C</tspan>
      <tspan x="178.86731" y="-0.625" style="font-size: 6.4px; font-family: 'Arial'; fill: #555555">-</tspan>
      <tspan x="180.990234" y="-0.625" style="font-size: 6.4px; font-family: 'Arial'; fill: #555555">R</tspan>
      <tspan x="185.594055" y="-0.625" style="font-size: 6.4px; font-family: 'Arial'; fill: #555555">L</tspan>
      <tspan x="189.139526" y="-0.625" style="font-size: 6.4px; font-family: 'Arial'; fill: #555555"> </tspan>
      <tspan x="190.910706" y="-0.625" style="font-size: 6.4px; font-family: 'Arial'; fill: #555555">0</tspan>
      <tspan x="194.456177" y="-0.625" style="font-size: 6.4px; font-family: 'Arial'; fill: #555555">.</tspan>
      <tspan x="196.227356" y="-0.625" style="font-size: 6.4px; font-family: 'Arial'; fill: #555555">5</tspan>
      <tspan x="199.772827" y="-0.625" style="font-size: 6.4px; font-family: 'Arial'; fill: #555555">0</tspan>
      <tspan x="36.488159" y="-0.625" style="font-style: oblique; font-size: 6.4px; font-family: 'DejaVu Sans'; fill: #555555">α</tspan>
     </text>
    </g>
   </g>
   <g id="legend_2">
    <g id="line2d_47">
     <path d="M 48.52875 127.149676 
L 55.52875 127.149676 
L 62.52875 127.149676 
" style="fill: none; stroke: #b6242e; stroke-width: 1.1; stroke-linecap: square"/>
    </g>
    <g id="text_24">
     <text style="font-size: 7px; font-family: 'Arial', 'Helvetica', 'DejaVu Sans', sans-serif; text-anchor: start" x="68.12875" y="129.599676" transform="rotate(-0 68.12875 129.599676)">PAC-S</text>
    </g>
    <g id="line2d_48">
     <path d="M 48.52875 137.051395 
L 55.52875 137.051395 
L 62.52875 137.051395 
" style="fill: none; stroke: #6e141c; stroke-width: 1.1; stroke-linecap: square"/>
    </g>
    <g id="text_25">
     <text style="font-size: 7px; font-family: 'Arial', 'Helvetica', 'DejaVu Sans', sans-serif; text-anchor: start" x="68.12875" y="139.501395" transform="rotate(-0 68.12875 139.501395)">PAC-RL</text>
    </g>
   </g>
  </g>
 </g>
 <defs>
  <clipPath id="pe9ed182e08">
   <rect x="42.22875" y="12.848604" width="401.76" height="94.143396"/>
  </clipPath>
  <clipPath id="p5770048191">
   <rect x="42.22875" y="118.289208" width="401.76" height="94.143396"/>
  </clipPath>
 </defs>
</svg>
