<?xml version="1.0" encoding="utf-8" standalone="no"?>
<!DOCTYPE svg PUBLIC "-//W3C//DTD SVG 1.1//EN"
  "http://www.w3.org/Graphics/SVG/1.1/DTD/svg11.dtd">
<svg xmlns:xlink="http://www.w3.org/1999/xlink" width="514.070312pt" height="196.780932pt" viewBox="0 0 514.070312 196.780932" xmlns="http://www.w3.org/2000/svg" version="1.1">
 <metadata>
  <rdf:RDF xmlns:dc="http://purl.org/dc/elements/1.1/" xmlns:cc="http://creativecommons.org/ns#" xmlns:rdf="http://www.w3.org/1999/02/22-rdf-syntax-ns#">
   <cc:Work>
    <dc:type rdf:resource="http://purl.org/dc/dcmitype/StillImage"/>
    <dc:date>2026-09-29T09:56:54.339576</dc:date>
    <dc:format>image/svg+xml</dc:format>
    <dc:creator>
     <cc:Agent>
      <dc:title>Matplotlib v3.10.8, https://matplotlib.org/</dc:title>
     </cc:Agent>
    </dc:creator>
   </cc:Work>
  </rdf:RDF>
 </metadata>
 <defs>
  <style type="text/css">*{stroke-linejoin: round; stroke-linecap: butt}</style>
 </defs>
 <g id="figure_1">
  <g id="patch_1">
   <path d="M 0 196.780932 
L 514.070312 196.780932 
L 514.070312 0 
L 0 0 
z
" style="fill: #ffffff"/>
  </g>
  <g id="axes_1">
   <g id="patch_2">
    <path d="M 42.220313 162.81312 
L 506.870312 162.81312 
L 506.870312 16.00829 
L 42.220313 16.00829 
z
" style="fill: #ffffff"/>
   </g>
   <g id="patch_3">
    <path d="M 63.340767 162.81312 
L 99.318597 162.81312 
L 99.318597 16.00829 
L 63.340767 16.00829 
z
" clip-path="url(#pac93bb60b5)" style="fill: #e3e6ea; stroke: #e3e6ea; stroke-linejoin: miter"/>
   </g>
   <g id="matplotlib.axis_1">
    <g id="xtick_1">
     <g id="line2d_1">
      <path d="M 45.351852 162.81312 
L 45.351852 16.00829 
" clip-path="url(#pac93bb60b5)" style="fill: none; stroke: #e3e6ea; stroke-width: 0.55; stroke-linecap: square"/>
     </g>
     <g id="line2d_2">
      <defs>
       <path id="m9cc33b51e7" d="M 0 0 
L 0 3.5 
" style="stroke: #000000; stroke-width: 0.8"/>
      </defs>
      <g>
       <use xlink:href="#m9cc33b51e7" x="45.351852" y="162.81312" style="stroke: #000000; stroke-width: 0.8"/>
      </g>
     </g>
     <g id="text_1">
      <text style="font-size: 8px; font-family: 'Arial', 'Helvetica', 'DejaVu Sans', sans-serif; text-anchor: middle" x="45.351852" y="175.53937" transform="rotate(-0 45.351852 175.53937)">0.68</text>
     </g>
    </g>
    <g id="xtick_2">
     <g id="line2d_3">
      <path d="M 117.307512 162.81312 
L 117.307512 16.00829 
" clip-path="url(#pac93bb60b5)" style="fill: none; stroke: #e3e6ea; stroke-width: 0.55; stroke-linecap: square"/>
     </g>
     <g id="line2d_4">
      <g>
       <use xlink:href="#m9cc33b51e7" x="117.307512" y="162.81312" style="stroke: #000000; stroke-width: 0.8"/>
      </g>
     </g>
     <g id="text_2">
      <text style="font-size: 8px; font-family: 'Arial', 'Helvetica', 'DejaVu Sans', sans-serif; text-anchor: middle" x="117.307512" y="175.53937" transform="rotate(-0 117.307512 175.53937)">0.70</text>
     </g>
    </g>
    <g id="xtick_3">
     <g id="line2d_5">
      <path d="M 189.263171 162.81312 
L 189.263171 16.00829 
" clip-path="url(#pac93bb60b5)" style="fill: none; stroke: #e3e6ea; stroke-width: 0.55; stroke-linecap: square"/>
     </g>
     <g id="line2d_6">
      <g>
       <use xlink:href="#m9cc33b51e7" x="189.263171" y="162.81312" style="stroke: #000000; stroke-width: 0.8"/>
      </g>
     </g>
     <g id="text_3">
      <text style="font-size: 8px; font-family: 'Arial', 'Helvetica', 'DejaVu Sans', sans-serif; text-anchor: middle" x="189.263171" y="175.53937" transform="rotate(-0 189.263171 175.53937)">0.72</text>
     </g>
    </g>
    <g id="xtick_4">
     <g id="line2d_7">
      <path d="M 261.218831 162.81312 
L 261.218831 16.00829 
" clip-path="url(#pac93bb60b5)" style="fill: none; stroke: #e3e6ea; stroke-width: 0.55; stroke-linecap: square"/>
     </g>
     <g id="line2d_8">
      <g>
       <use xlink:href="#m9cc33b51e7" x="261.218831" y="162.81312" style="stroke: #000000; stroke-width: 0.8"/>
      </g>
     </g>
     <g id="text_4">
      <text style="font-size: 8px; font-family: 'Arial', 'Helvetica', 'DejaVu Sans', sans-serif; text-anchor: middle" x="261.218831" y="175.53937" transform="rotate(-0 261.218831 175.53937)">0.74</text>
     </g>
    </g>
    <g id="xtick_5">
     <g id="line2d_9">
      <path d="M 333.17449 162.81312 
L 333.17449 16.00829 
" clip-path="url(#pac93bb60b5)" style="fill: none; stroke: #e3e6ea; stroke-width: 0.55; stroke-linecap: square"/>
     </g>
     <g id="line2d_10">
      <g>
       <use xlink:href="#m9cc33b51e7" x="333.17449" y="162.81312" style="stroke: #000000; stroke-width: 0.8"/>
      </g>
     </g>
     <g id="text_5">
      <text style="font-size: 8px; font-family: 'Arial', 'Helvetica', 'DejaVu Sans', sans-serif; text-anchor: middle" x="333.17449" y="175.53937" transform="rotate(-0 333.17449 175.53937)">0.76</text>
     </g>
    </g>
    <g id="xtick_6">
     <g id="line2d_11">
      <path d="M 405.13015 162.81312 
L 405.13015 16.00829 
" clip-path="url(#pac93bb60b5)" style="fill: none; stroke: #e3e6ea; stroke-width: 0.55; stroke-linecap: square"/>
     </g>
     <g id="line2d_12">
      <g>
       <use xlink:href="#m9cc33b51e7" x="405.13015" y="162.81312" style="stroke: #000000; stroke-width: 0.8"/>
      </g>
     </g>
     <g id="text_6">
      <text style="font-size: 8px; font-family: 'Arial', 'Helvetica', 'DejaVu Sans', sans-serif; text-anchor: middle" x="405.13015" y="175.53937" transform="rotate(-0 405.13015 175.53937)">0.78</text>
     </g>
    </g>
    <g id="xtick_7">
     <g id="line2d_13">
      <path d="M 477.085809 162.81312 
L 477.085809 16.00829 
" clip-path="url(#pac93bb60b5)" style="fill: none; stroke: #e3e6ea; stroke-width: 0.55; stroke-linecap: square"/>
     </g>
     <g id="line2d_14">
      <g>
       <use xlink:href="#m9cc33b51e7" x="477.085809" y="162.81312" style="stroke: #000000; stroke-width: 0.8"/>
      </g>
     </g>
     <g id="text_7">
      <text style="font-size: 8px; font-family: 'Arial', 'Helvetica', 'DejaVu Sans', sans-serif; text-anchor: middle" x="477.085809" y="175.53937" transform="rotate(-0 477.085809 175.53937)">0.80</text>
     </g>
    </g>
    <g id="text_8">
     <text style="font-size: 9px; font-family: 'Arial', 'Helvetica', 'DejaVu Sans', sans-serif; text-anchor: middle" x="274.545312" y="187.686714" transform="rotate(-0 274.545312 187.686714)">solver deadline-miss step fraction (OOD)</text>
    </g>
   </g>
   <g id="matplotlib.axis_2">
    <g id="ytick_1">
     <g id="line2d_15">
      <path d="M 42.220313 162.81312 
L 506.870312 162.81312 
" clip-path="url(#pac93bb60b5)" style="fill: none; stroke: #e3e6ea; stroke-width: 0.55; stroke-linecap: square"/>
     </g>
     <g id="line2d_16">
      <defs>
       <path id="mbafcdce23e" d="M 0 0 
L -3.5 0 
" style="stroke: #000000; stroke-width: 0.8"/>
      </defs>
      <g>
       <use xlink:href="#mbafcdce23e" x="42.220313" y="162.81312" style="stroke: #000000; stroke-width: 0.8"/>
      </g>
     </g>
     <g id="text_9">
      <text style="font-size: 8px; font-family: 'Arial', 'Helvetica', 'DejaVu Sans', sans-serif; text-anchor: end" x="35.220313" y="165.676245" transform="rotate(-0 35.220313 165.676245)">0.10</text>
     </g>
    </g>
    <g id="ytick_2">
     <g id="line2d_17">
      <path d="M 42.220313 144.462516 
L 506.870312 144.462516 
" clip-path="url(#pac93bb60b5)" style="fill: none; stroke: #e3e6ea; stroke-width: 0.55; stroke-linecap: square"/>
     </g>
     <g id="line2d_18">
      <g>
       <use xlink:href="#mbafcdce23e" x="42.220313" y="144.462516" style="stroke: #000000; stroke-width: 0.8"/>
      </g>
     </g>
     <g id="text_10">
      <text style="font-size: 8px; font-family: 'Arial', 'Helvetica', 'DejaVu Sans', sans-serif; text-anchor: end" x="35.220313" y="147.325641" transform="rotate(-0 35.220313 147.325641)">0.12</text>
     </g>
    </g>
    <g id="ytick_3">
     <g id="line2d_19">
      <path d="M 42.220313 126.111912 
L 506.870312 126.111912 
" clip-path="url(#pac93bb60b5)" style="fill: none; stroke: #e3e6ea; stroke-width: 0.55; stroke-linecap: square"/>
     </g>
     <g id="line2d_20">
      <g>
       <use xlink:href="#mbafcdce23e" x="42.220313" y="126.111912" style="stroke: #000000; stroke-width: 0.8"/>
      </g>
     </g>
     <g id="text_11">
      <text style="font-size: 8px; font-family: 'Arial', 'Helvetica', 'DejaVu Sans', sans-serif; text-anchor: end" x="35.220313" y="128.975037" transform="rotate(-0 35.220313 128.975037)">0.14</text>
     </g>
    </g>
    <g id="ytick_4">
     <g id="line2d_21">
      <path d="M 42.220313 107.761309 
L 506.870312 107.761309 
" clip-path="url(#pac93bb60b5)" style="fill: none; stroke: #e3e6ea; stroke-width: 0.55; stroke-linecap: square"/>
     </g>
     <g id="line2d_22">
      <g>
       <use xlink:href="#mbafcdce23e" x="42.220313" y="107.761309" style="stroke: #000000; stroke-width: 0.8"/>
      </g>
     </g>
     <g id="text_12">
      <text style="font-size: 8px; font-family: 'Arial', 'Helvetica', 'DejaVu Sans', sans-serif; text-anchor: end" x="35.220313" y="110.624434" transform="rotate(-0 35.220313 110.624434)">0.16</text>
     </g>
    </g>
    <g id="ytick_5">
     <g id="line2d_23">
      <path d="M 42.220313 89.410705 
L 506.870312 89.410705 
" clip-path="url(#pac93bb60b5)" style="fill: none; stroke: #e3e6ea; stroke-width: 0.55; stroke-linecap: square"/>
     </g>
     <g id="line2d_24">
      <g>
       <use xlink:href="#mbafcdce23e" x="42.220313" y="89.410705" style="stroke: #000000; stroke-width: 0.8"/>
      </g>
     </g>
     <g id="text_13">
      <text style="font-size: 8px; font-family: 'Arial', 'Helvetica', 'DejaVu Sans', sans-serif; text-anchor: end" x="35.220313" y="92.27383" transform="rotate(-0 35.220313 92.27383)">0.18</text>
     </g>
    </g>
    <g id="ytick_6">
     <g id="line2d_25">
      <path d="M 42.220313 71.060101 
L 506.870312 71.060101 
" clip-path="url(#pac93bb60b5)" style="fill: none; stroke: #e3e6ea; stroke-width: 0.55; stroke-linecap: square"/>
     </g>
     <g id="line2d_26">
      <g>
       <use xlink:href="#mbafcdce23e" x="42.220313" y="71.060101" style="stroke: #000000; stroke-width: 0.8"/>
      </g>
     </g>
     <g id="text_14">
      <text style="font-size: 8px; font-family: 'Arial', 'Helvetica', 'DejaVu Sans', sans-serif; text-anchor: end" x="35.220313" y="73.923226" transform="rotate(-0 35.220313 73.923226)">0.20</text>
     </g>
    </g>
    <g id="ytick_7">
     <g id="line2d_27">
      <path d="M 42.220313 52.709497 
L 506.870312 52.709497 
" clip-path="url(#pac93bb60b5)" style="fill: none; stroke: #e3e6ea; stroke-width: 0.55; stroke-linecap: square"/>
     </g>
     <g id="line2d_28">
      <g>
       <use xlink:href="#mbafcdce23e" x="42.220313" y="52.709497" style="stroke: #000000; stroke-width: 0.8"/>
      </g>
     </g>
     <g id="text_15">
      <text style="font-size: 8px; font-family: 'Arial', 'Helvetica', 'DejaVu Sans', sans-serif; text-anchor: end" x="35.220313" y="55.572622" transform="rotate(-0 35.220313 55.572622)">0.22</text>
     </g>
    </g>
    <g id="ytick_8">
     <g id="line2d_29">
      <path d="M 42.220313 34.358894 
L 506.870312 34.358894 
" clip-path="url(#pac93bb60b5)" style="fill: none; stroke: #e3e6ea; stroke-width: 0.55; stroke-linecap: square"/>
     </g>
     <g id="line2d_30">
      <g>
       <use xlink:href="#mbafcdce23e" x="42.220313" y="34.358894" style="stroke: #000000; stroke-width: 0.8"/>
      </g>
     </g>
     <g id="text_16">
      <text style="font-size: 8px; font-family: 'Arial', 'Helvetica', 'DejaVu Sans', sans-serif; text-anchor: end" x="35.220313" y="37.222019" transform="rotate(-0 35.220313 37.222019)">0.24</text>
     </g>
    </g>
    <g id="ytick_9">
     <g id="line2d_31">
      <path d="M 42.220313 16.00829 
L 506.870312 16.00829 
" clip-path="url(#pac93bb60b5)" style="fill: none; stroke: #e3e6ea; stroke-width: 0.55; stroke-linecap: square"/>
     </g>
     <g id="line2d_32">
      <g>
       <use xlink:href="#mbafcdce23e" x="42.220313" y="16.00829" style="stroke: #000000; stroke-width: 0.8"/>
      </g>
     </g>
     <g id="text_17">
      <text style="font-size: 8px; font-family: 'Arial', 'Helvetica', 'DejaVu Sans', sans-serif; text-anchor: end" x="35.220313" y="18.871415" transform="rotate(-0 35.220313 18.871415)">0.26</text>
     </g>
    </g>
    <g id="text_18">
     <text style="font-size: 9px; font-family: 'Arial', 'Helvetica', 'DejaVu Sans', sans-serif; text-anchor: middle" x="13.757344" y="89.410705" transform="rotate(-90 13.757344 89.410705)">OOD RMSE (m)</text>
    </g>
   </g>
   <g id="patch_4">
    <path d="M 42.220313 162.81312 
L 42.220313 16.00829 
" style="fill: none; stroke: #000000; stroke-width: 0.8; stroke-linejoin: miter; stroke-linecap: square"/>
   </g>
   <g id="patch_5">
    <path d="M 42.220313 162.81312 
L 506.870312 162.81312 
" style="fill: none; stroke: #000000; stroke-width: 0.8; stroke-linejoin: miter; stroke-linecap: square"/>
   </g>
   <g id="text_19">
    <text style="font-weight: 700; font-size: 11px; font-family: 'Arial', 'Helvetica', 'DejaVu Sans', sans-serif; text-anchor: end" x="14.341313" y="15.073594" transform="rotate(-0 14.341313 15.073594)">a</text>
   </g>
   <g id="PathCollection_1">
    <defs>
     <path id="m166743831f" d="M 0 2.54951 
C 0.676138 2.54951 1.324674 2.280877 1.802776 1.802776 
C 2.280877 1.324674 2.54951 0.676138 2.54951 0 
C 2.54951 -0.676138 2.280877 -1.324674 1.802776 -1.802776 
C 1.324674 -2.280877 0.676138 -2.54951 0 -2.54951 
C -0.676138 -2.54951 -1.324674 -2.280877 -1.802776 -1.802776 
C -2.280877 -1.324674 -2.54951 -0.676138 -2.54951 0 
C -2.54951 0.676138 -2.280877 1.324674 -1.802776 1.802776 
C -1.324674 2.280877 -0.676138 2.54951 0 2.54951 
z
" style="stroke: #ffffff; stroke-width: 0.5"/>
    </defs>
    <g clip-path="url(#pac93bb60b5)">
     <use xlink:href="#m166743831f" x="79.322755" y="26.810692" style="fill: #514d83; stroke: #ffffff; stroke-width: 0.5"/>
    </g>
   </g>
   <g id="PathCollection_2">
    <defs>
     <path id="m3993d9144d" d="M 0 2.54951 
C 0.676138 2.54951 1.324674 2.280877 1.802776 1.802776 
C 2.280877 1.324674 2.54951 0.676138 2.54951 0 
C 2.54951 -0.676138 2.280877 -1.324674 1.802776 -1.802776 
C 1.324674 -2.280877 0.676138 -2.54951 0 -2.54951 
C -0.676138 -2.54951 -1.324674 -2.280877 -1.802776 -1.802776 
C -2.280877 -1.324674 -2.54951 -0.676138 -2.54951 0 
C -2.54951 0.676138 -2.280877 1.324674 -1.802776 1.802776 
C -1.324674 2.280877 -0.676138 2.54951 0 2.54951 
z
" style="stroke: #ffffff; stroke-width: 0.5"/>
    </defs>
    <g clip-path="url(#pac93bb60b5)">
     <use xlink:href="#m3993d9144d" x="79.959098" y="51.55627" style="fill: #cc9429; stroke: #ffffff; stroke-width: 0.5"/>
    </g>
   </g>
   <g id="PathCollection_3">
    <defs>
     <path id="mfcab19aed6" d="M 0 2.54951 
C 0.676138 2.54951 1.324674 2.280877 1.802776 1.802776 
C 2.280877 1.324674 2.54951 0.676138 2.54951 0 
C 2.54951 -0.676138 2.280877 -1.324674 1.802776 -1.802776 
C 1.324674 -2.280877 0.676138 -2.54951 0 -2.54951 
C -0.676138 -2.54951 -1.324674 -2.280877 -1.802776 -1.802776 
C -2.280877 -1.324674 -2.54951 -0.676138 -2.54951 0 
C -2.54951 0.676138 -2.280877 1.324674 -1.802776 1.802776 
C -1.324674 2.280877 -0.676138 2.54951 0 2.54951 
z
" style="stroke: #ffffff; stroke-width: 0.5"/>
    </defs>
    <g clip-path="url(#pac93bb60b5)">
     <use xlink:href="#mfcab19aed6" x="79.959098" y="144.078553" style="fill: #8c9196; stroke: #ffffff; stroke-width: 0.5"/>
    </g>
   </g>
   <g id="PathCollection_4">
    <defs>
     <path id="mda868a2ea7" d="M 0 2.54951 
C 0.676138 2.54951 1.324674 2.280877 1.802776 1.802776 
C 2.280877 1.324674 2.54951 0.676138 2.54951 0 
C 2.54951 -0.676138 2.280877 -1.324674 1.802776 -1.802776 
C 1.324674 -2.280877 0.676138 -2.54951 0 -2.54951 
C -0.676138 -2.54951 -1.324674 -2.280877 -1.802776 -1.802776 
C -2.280877 -1.324674 -2.54951 -0.676138 -2.54951 0 
C -2.54951 0.676138 -2.280877 1.324674 -1.802776 1.802776 
C -1.324674 2.280877 -0.676138 2.54951 0 2.54951 
z
" style="stroke: #ffffff; stroke-width: 0.5"/>
    </defs>
    <g clip-path="url(#pac93bb60b5)">
     <use xlink:href="#mda868a2ea7" x="78.490615" y="130.019357" style="fill: #3f7e72; stroke: #ffffff; stroke-width: 0.5"/>
    </g>
   </g>
   <g id="PathCollection_5">
    <defs>
     <path id="m80578ca538" d="M 0 2.54951 
C 0.676138 2.54951 1.324674 2.280877 1.802776 1.802776 
C 2.280877 1.324674 2.54951 0.676138 2.54951 0 
C 2.54951 -0.676138 2.280877 -1.324674 1.802776 -1.802776 
C 1.324674 -2.280877 0.676138 -2.54951 0 -2.54951 
C -0.676138 -2.54951 -1.324674 -2.280877 -1.802776 -1.802776 
C -2.280877 -1.324674 -2.54951 -0.676138 -2.54951 0 
C -2.54951 0.676138 -2.280877 1.324674 -1.802776 1.802776 
C -1.324674 2.280877 -0.676138 2.54951 0 2.54951 
z
" style="stroke: #ffffff; stroke-width: 0.5"/>
    </defs>
    <g clip-path="url(#pac93bb60b5)">
     <use xlink:href="#m80578ca538" x="79.175907" y="91.693596" style="fill: #e8730c; stroke: #ffffff; stroke-width: 0.5"/>
     <use xlink:href="#m80578ca538" x="79.616452" y="126.205438" style="fill: #e8730c; stroke: #ffffff; stroke-width: 0.5"/>
     <use xlink:href="#m80578ca538" x="78.833261" y="123.452353" style="fill: #e8730c; stroke: #ffffff; stroke-width: 0.5"/>
     <use xlink:href="#m80578ca538" x="91.560112" y="118.50091" style="fill: #e8730c; stroke: #ffffff; stroke-width: 0.5"/>
     <use xlink:href="#m80578ca538" x="167.08908" y="76.691318" style="fill: #e8730c; stroke: #ffffff; stroke-width: 0.5"/>
    </g>
   </g>
   <g id="PathCollection_6">
    <defs>
     <path id="m8f30fec84d" d="M 0 2.54951 
C 0.676138 2.54951 1.324674 2.280877 1.802776 1.802776 
C 2.280877 1.324674 2.54951 0.676138 2.54951 0 
C 2.54951 -0.676138 2.280877 -1.324674 1.802776 -1.802776 
C 1.324674 -2.280877 0.676138 -2.54951 0 -2.54951 
C -0.676138 -2.54951 -1.324674 -2.280877 -1.802776 -1.802776 
C -2.280877 -1.324674 -2.54951 -0.676138 -2.54951 0 
C -2.54951 0.676138 -2.280877 1.324674 -1.802776 1.802776 
C -1.324674 2.280877 -0.676138 2.54951 0 2.54951 
z
" style="stroke: #ffffff; stroke-width: 0.5"/>
    </defs>
    <g clip-path="url(#pac93bb60b5)">
     <use xlink:href="#m8f30fec84d" x="484.428223" y="148.805998" style="fill: #b6242e; stroke: #ffffff; stroke-width: 0.5"/>
     <use xlink:href="#m8f30fec84d" x="484.379274" y="149.283124" style="fill: #b6242e; stroke: #ffffff; stroke-width: 0.5"/>
     <use xlink:href="#m8f30fec84d" x="484.917718" y="148.440208" style="fill: #b6242e; stroke: #ffffff; stroke-width: 0.5"/>
     <use xlink:href="#m8f30fec84d" x="485.358263" y="147.240193" style="fill: #b6242e; stroke: #ffffff; stroke-width: 0.5"/>
     <use xlink:href="#m8f30fec84d" x="485.749858" y="147.097844" style="fill: #b6242e; stroke: #ffffff; stroke-width: 0.5"/>
    </g>
   </g>
   <g id="text_20">
    <text style="font-size: 6.6px; font-family: 'Arial', 'Helvetica', 'DejaVu Sans', sans-serif; fill: #555555" transform="translate(54.478777 46.503729)">baseline level (0.69):</text>
    <text style="font-size: 6.6px; font-family: 'Arial', 'Helvetica', 'DejaVu Sans', sans-serif; fill: #555555" transform="translate(65.677121 53.56181)">SMC / MPC /</text>
    <!-- Fixed $\alpha$ / SSPO -->
    <g style="fill: #555555" transform="translate(61.827465 60.542548)">
     <text>
      <tspan x="0" y="-0.90625" style="font-size: 6.6px; font-family: 'Arial'; fill: #555555">F</tspan>
      <tspan x="4.046814" y="-0.90625" style="font-size: 6.6px; font-family: 'Arial'; fill: #555555">i</tspan>
      <tspan x="5.518677" y="-0.90625" style="font-size: 6.6px; font-family: 'Arial'; fill: #555555">x</tspan>
      <tspan x="8.831177" y="-0.90625" style="font-size: 6.6px; font-family: 'Arial'; fill: #555555">e</tspan>
      <tspan x="12.515686" y="-0.90625" style="font-size: 6.6px; font-family: 'Arial'; fill: #555555">d</tspan>
      <tspan x="16.200195" y="-0.90625" style="font-size: 6.6px; font-family: 'Arial'; fill: #555555"> </tspan>
      <tspan x="22.407898" y="-0.90625" style="font-size: 6.6px; font-family: 'Arial'; fill: #555555"> </tspan>
      <tspan x="24.248535" y="-0.90625" style="font-size: 6.6px; font-family: 'Arial'; fill: #555555">/</tspan>
      <tspan x="26.089172" y="-0.90625" style="font-size: 6.6px; font-family: 'Arial'; fill: #555555"> </tspan>
      <tspan x="27.92981" y="-0.90625" style="font-size: 6.6px; font-family: 'Arial'; fill: #555555">S</tspan>
      <tspan x="32.348633" y="-0.90625" style="font-size: 6.6px; font-family: 'Arial'; fill: #555555">S</tspan>
      <tspan x="36.767456" y="-0.90625" style="font-size: 6.6px; font-family: 'Arial'; fill: #555555">P</tspan>
      <tspan x="41.186279" y="-0.90625" style="font-size: 6.6px; font-family: 'Arial'; fill: #555555">O</tspan>
      <tspan x="18.040833" y="-0.90625" style="font-style: oblique; font-size: 6.6px; font-family: 'DejaVu Sans'; fill: #555555">α</tspan>
     </text>
    </g>
   </g>
   <g id="legend_1">
    <g id="PathCollection_7">
     <g>
      <use xlink:href="#m166743831f" x="96.754062" y="25.566571" style="fill: #514d83; stroke: #ffffff; stroke-width: 0.5"/>
     </g>
    </g>
    <g id="text_21">
     <text style="font-size: 7px; font-family: 'Arial', 'Helvetica', 'DejaVu Sans', sans-serif; text-anchor: start" x="109.354062" y="27.404071" transform="rotate(-0 109.354062 27.404071)">SMC</text>
    </g>
    <g id="PathCollection_8">
     <g>
      <use xlink:href="#m3993d9144d" x="145.909375" y="25.566571" style="fill: #cc9429; stroke: #ffffff; stroke-width: 0.5"/>
     </g>
    </g>
    <g id="text_22">
     <text style="font-size: 7px; font-family: 'Arial', 'Helvetica', 'DejaVu Sans', sans-serif; text-anchor: start" x="158.509375" y="27.404071" transform="rotate(-0 158.509375 27.404071)">MPC</text>
    </g>
    <g id="PathCollection_9">
     <g>
      <use xlink:href="#mfcab19aed6" x="195.064687" y="25.566571" style="fill: #8c9196; stroke: #ffffff; stroke-width: 0.5"/>
     </g>
    </g>
    <g id="text_23">
     <!-- Fixed $\alpha$=0.5 -->
     <g transform="translate(207.664687 27.404071)">
      <text>
       <tspan x="0" y="-0.96875" style="font-size: 7px; font-family: 'Arial'">F</tspan>
       <tspan x="4.275879" y="-0.96875" style="font-size: 7px; font-family: 'Arial'">i</tspan>
       <tspan x="5.831055" y="-0.96875" style="font-size: 7px; font-family: 'Arial'">x</tspan>
       <tspan x="9.331055" y="-0.96875" style="font-size: 7px; font-family: 'Arial'">e</tspan>
       <tspan x="13.224121" y="-0.96875" style="font-size: 7px; font-family: 'Arial'">d</tspan>
       <tspan x="17.117188" y="-0.96875" style="font-size: 7px; font-family: 'Arial'"> </tspan>
       <tspan x="23.67627" y="-0.96875" style="font-size: 7px; font-family: 'Arial'">=</tspan>
       <tspan x="27.76416" y="-0.96875" style="font-size: 7px; font-family: 'Arial'">0</tspan>
       <tspan x="31.657227" y="-0.96875" style="font-size: 7px; font-family: 'Arial'">.</tspan>
       <tspan x="33.602051" y="-0.96875" style="font-size: 7px; font-family: 'Arial'">5</tspan>
       <tspan x="19.062012" y="-0.96875" style="font-style: oblique; font-size: 7px; font-family: 'DejaVu Sans'">α</tspan>
      </text>
     </g>
    </g>
    <g id="PathCollection_10">
     <g>
      <use xlink:href="#mda868a2ea7" x="266.184687" y="25.566571" style="fill: #3f7e72; stroke: #ffffff; stroke-width: 0.5"/>
     </g>
    </g>
    <g id="text_24">
     <text style="font-size: 7px; font-family: 'Arial', 'Helvetica', 'DejaVu Sans', sans-serif; text-anchor: start" x="278.784687" y="27.404071" transform="rotate(-0 278.784687 27.404071)">SSPO</text>
    </g>
    <g id="PathCollection_11">
     <g>
      <use xlink:href="#m80578ca538" x="319.237031" y="25.566571" style="fill: #e8730c; stroke: #ffffff; stroke-width: 0.5"/>
     </g>
    </g>
    <g id="text_25">
     <text style="font-size: 7px; font-family: 'Arial', 'Helvetica', 'DejaVu Sans', sans-serif; text-anchor: start" x="331.837031" y="27.404071" transform="rotate(-0 331.837031 27.404071)">Supervised PAC</text>
    </g>
    <g id="PathCollection_12">
     <g>
      <use xlink:href="#m8f30fec84d" x="403.677812" y="25.566571" style="fill: #b6242e; stroke: #ffffff; stroke-width: 0.5"/>
     </g>
    </g>
    <g id="text_26">
     <text style="font-size: 7px; font-family: 'Arial', 'Helvetica', 'DejaVu Sans', sans-serif; text-anchor: start" x="416.277812" y="27.404071" transform="rotate(-0 416.277812 27.404071)">Residual PAC</text>
    </g>
   </g>
  </g>
 </g>
 <defs>
  <clipPath id="pac93bb60b5">
   <rect x="42.220313" y="16.00829" width="464.65" height="146.80483"/>
  </clipPath>
 </defs>
</svg>
